<svg width="295" height="153" viewBox="0 0 295 153" fill="none" xmlns="http://www.w3.org/2000/svg">
<g clip-path="url(#clip0_2202_38501)">
<path d="M38.2363 0H263.835V130.006C263.835 142.676 253.563 152.948 240.892 152.948H61.1785C48.5079 152.948 38.2363 142.676 38.2363 130.006V0Z" fill="#3781DB"/>
<g clip-path="url(#clip1_2202_38501)">
<path d="M152.324 100.69H110.235C107.34 100.69 105.893 100.69 104.787 100.123C103.815 99.6239 103.024 98.8277 102.528 97.8484C101.965 96.7351 101.965 95.2777 101.965 92.3629V84.1892C107.988 82.0458 112.303 76.2624 112.303 69.4642C112.303 62.666 107.988 56.8826 101.965 54.7392V46.5635C101.965 43.6487 101.965 42.1913 102.528 41.078C103.024 40.0987 103.815 39.3026 104.787 38.8036C105.893 38.2363 107.34 38.2363 110.235 38.2363H186.738C189.633 38.2363 191.08 38.2363 192.186 38.8036C193.158 39.3026 193.949 40.0987 194.445 41.078C195.008 42.1913 195.008 43.6487 195.008 46.5635V66.2093" stroke="white" stroke-width="5" stroke-linecap="round" stroke-linejoin="round"/>
<line x1="130.5" y1="42.5" x2="130.5" y2="99.5" stroke="white" stroke-width="5" stroke-linecap="round" stroke-dasharray="10 10"/>
<path d="M159.32 81.2729C158.216 81.2729 157.32 82.1683 157.32 83.2729C157.32 84.3775 158.216 85.2729 159.32 85.2729V81.2729ZM195.008 85.2729C196.113 85.2729 197.008 84.3775 197.008 83.2729C197.008 82.1683 196.113 81.2729 195.008 81.2729V85.2729ZM161.485 106.633L162.393 104.851L161.485 106.633ZM159.753 104.9L161.535 103.992L159.753 104.9ZM194.576 104.9L192.794 103.992L194.576 104.9ZM192.843 106.633L191.935 104.851L192.843 106.633ZM192.843 75.7745L191.935 77.5565L192.843 75.7745ZM194.576 77.5074L192.794 78.4154L194.576 77.5074ZM161.485 75.7745L162.393 77.5565L161.485 75.7745ZM159.753 77.5074L161.535 78.4154L159.753 77.5074ZM169.251 71.377C169.251 70.2724 168.356 69.377 167.251 69.377C166.146 69.377 165.251 70.2724 165.251 71.377H169.251ZM165.251 75.3423C165.251 76.4468 166.146 77.3423 167.251 77.3423C168.356 77.3423 169.251 76.4468 169.251 75.3423H165.251ZM189.078 71.377C189.078 70.2724 188.182 69.377 187.078 69.377C185.973 69.377 185.078 70.2724 185.078 71.377H189.078ZM185.078 75.3423C185.078 76.4468 185.973 77.3423 187.078 77.3423C188.182 77.3423 189.078 76.4468 189.078 75.3423H185.078ZM165.268 87.2209C164.164 87.2209 163.268 88.1163 163.268 89.2209C163.268 90.3255 164.164 91.2209 165.268 91.2209V87.2209ZM169.234 91.2209C170.338 91.2209 171.234 90.3255 171.234 89.2209C171.234 88.1163 170.338 87.2209 169.234 87.2209V91.2209ZM175.182 87.2209C174.077 87.2209 173.182 88.1163 173.182 89.2209C173.182 90.3255 174.077 91.2209 175.182 91.2209V87.2209ZM179.147 91.2209C180.251 91.2209 181.147 90.3255 181.147 89.2209C181.147 88.1163 180.251 87.2209 179.147 87.2209V91.2209ZM185.095 87.2209C183.99 87.2209 183.095 88.1163 183.095 89.2209C183.095 90.3255 183.99 91.2209 185.095 91.2209V87.2209ZM189.06 91.2209C190.165 91.2209 191.06 90.3255 191.06 89.2209C191.06 88.1163 190.165 87.2209 189.06 87.2209V91.2209ZM165.268 93.1689C164.164 93.1689 163.268 94.0643 163.268 95.1689C163.268 96.2734 164.164 97.1689 165.268 97.1689V93.1689ZM169.234 97.1689C170.338 97.1689 171.234 96.2734 171.234 95.1689C171.234 94.0643 170.338 93.1689 169.234 93.1689V97.1689ZM175.182 93.1689C174.077 93.1689 173.182 94.0643 173.182 95.1689C173.182 96.2734 174.077 97.1689 175.182 97.1689V93.1689ZM179.147 97.1689C180.251 97.1689 181.147 96.2734 181.147 95.1689C181.147 94.0643 180.251 93.1689 179.147 93.1689V97.1689ZM185.095 93.1689C183.99 93.1689 183.095 94.0643 183.095 95.1689C183.095 96.2734 183.99 97.1689 185.095 97.1689V93.1689ZM189.06 97.1689C190.165 97.1689 191.06 96.2734 191.06 95.1689C191.06 94.0643 190.165 93.1689 189.06 93.1689V97.1689ZM165.268 99.1168C164.164 99.1168 163.268 100.012 163.268 101.117C163.268 102.221 164.164 103.117 165.268 103.117V99.1168ZM169.234 103.117C170.338 103.117 171.234 102.221 171.234 101.117C171.234 100.012 170.338 99.1168 169.234 99.1168V103.117ZM175.182 99.1168C174.077 99.1168 173.182 100.012 173.182 101.117C173.182 102.221 174.077 103.117 175.182 103.117V99.1168ZM179.147 103.117C180.251 103.117 181.147 102.221 181.147 101.117C181.147 100.012 180.251 99.1168 179.147 99.1168V103.117ZM185.095 99.1168C183.99 99.1168 183.095 100.012 183.095 101.117C183.095 102.221 183.99 103.117 185.095 103.117V99.1168ZM189.06 103.117C190.165 103.117 191.06 102.221 191.06 101.117C191.06 100.012 190.165 99.1168 189.06 99.1168V103.117ZM159.32 85.2729H195.008V81.2729H159.32V85.2729ZM165.665 77.3423H188.664V73.3423H165.665V77.3423ZM193.008 81.6868V100.72H197.008V81.6868H193.008ZM188.664 105.065H165.665V109.065H188.664V105.065ZM161.32 100.72V81.6868H157.32V100.72H161.32ZM165.665 105.065C164.521 105.065 163.784 105.063 163.223 105.017C162.686 104.974 162.489 104.899 162.393 104.851L160.577 108.415C161.33 108.798 162.113 108.94 162.898 109.004C163.659 109.066 164.587 109.065 165.665 109.065V105.065ZM157.32 100.72C157.32 101.798 157.319 102.726 157.381 103.488C157.445 104.272 157.587 105.055 157.97 105.808L161.535 103.992C161.486 103.897 161.412 103.699 161.368 103.162C161.322 102.601 161.32 101.864 161.32 100.72H157.32ZM162.393 104.851C162.024 104.662 161.723 104.362 161.535 103.992L157.97 105.808C158.542 106.93 159.455 107.843 160.577 108.415L162.393 104.851ZM193.008 100.72C193.008 101.864 193.007 102.601 192.961 103.162C192.917 103.699 192.842 103.897 192.794 103.992L196.358 105.808C196.742 105.055 196.883 104.272 196.948 103.488C197.01 102.726 197.008 101.798 197.008 100.72H193.008ZM188.664 109.065C189.741 109.065 190.669 109.066 191.431 109.004C192.216 108.94 192.998 108.798 193.751 108.415L191.935 104.851C191.84 104.899 191.643 104.974 191.105 105.017C190.544 105.063 189.807 105.065 188.664 105.065V109.065ZM192.794 103.992C192.606 104.362 192.305 104.662 191.935 104.851L193.751 108.415C194.874 107.843 195.786 106.93 196.358 105.808L192.794 103.992ZM188.664 77.3423C189.807 77.3423 190.544 77.3438 191.105 77.3897C191.643 77.4336 191.84 77.508 191.935 77.5565L193.751 73.9925C192.998 73.6088 192.216 73.4671 191.431 73.4029C190.669 73.3407 189.741 73.3423 188.664 73.3423V77.3423ZM197.008 81.6868C197.008 80.6094 197.01 79.6811 196.948 78.9195C196.883 78.1346 196.742 77.3524 196.358 76.5994L192.794 78.4154C192.842 78.5105 192.917 78.7077 192.961 79.2452C193.007 79.8061 193.008 80.5434 193.008 81.6868H197.008ZM191.935 77.5565C192.305 77.7449 192.606 78.0456 192.794 78.4154L196.358 76.5994C195.786 75.4769 194.874 74.5644 193.751 73.9925L191.935 77.5565ZM165.665 73.3423C164.587 73.3423 163.659 73.3407 162.898 73.4029C162.113 73.4671 161.33 73.6088 160.577 73.9925L162.393 77.5565C162.489 77.508 162.686 77.4336 163.223 77.3897C163.784 77.3438 164.521 77.3423 165.665 77.3423V73.3423ZM161.32 81.6868C161.32 80.5434 161.322 79.8061 161.368 79.2452C161.412 78.7077 161.486 78.5105 161.535 78.4154L157.97 76.5994C157.587 77.3524 157.445 78.1346 157.381 78.9195C157.319 79.6811 157.32 80.6094 157.32 81.6868H161.32ZM160.577 73.9925C159.455 74.5644 158.542 75.4769 157.97 76.5994L161.535 78.4154C161.723 78.0456 162.024 77.7449 162.393 77.5565L160.577 73.9925ZM165.251 71.377V75.3423H169.251V71.377H165.251ZM185.078 71.377V75.3423H189.078V71.377H185.078ZM165.268 91.2209H169.234V87.2209H165.268V91.2209ZM175.182 91.2209H179.147V87.2209H175.182V91.2209ZM185.095 91.2209H189.06V87.2209H185.095V91.2209ZM165.268 97.1689H169.234V93.1689H165.268V97.1689ZM175.182 97.1689H179.147V93.1689H175.182V97.1689ZM185.095 97.1689H189.06V93.1689H185.095V97.1689ZM165.268 103.117H169.234V99.1168H165.268V103.117ZM175.182 103.117H179.147V99.1168H175.182V103.117ZM185.095 103.117H189.06V99.1168H185.095V103.117Z" fill="white"/>
</g>
<g filter="url(#filter0_f_2202_38501)">
<ellipse cx="147.85" cy="1.27374" rx="147.85" ry="2.54913" fill="black" fill-opacity="0.2"/>
</g>
</g>
<defs>
<filter id="filter0_f_2202_38501" x="-5.09827" y="-6.37366" width="305.896" height="15.2942" filterUnits="userSpaceOnUse" color-interpolation-filters="sRGB">
<feFlood flood-opacity="0" result="BackgroundImageFix"/>
<feBlend mode="normal" in="SourceGraphic" in2="BackgroundImageFix" result="shape"/>
<feGaussianBlur stdDeviation="2.54913" result="effect1_foregroundBlur_2202_38501"/>
</filter>
<clipPath id="clip0_2202_38501">
<rect width="295" height="153" fill="white"/>
</clipPath>
<clipPath id="clip1_2202_38501">
<rect width="98.1416" height="98.1416" fill="white" transform="translate(99.416 21.668)"/>
</clipPath>
</defs>
</svg>
