<svg width="273" height="231" viewBox="0 0 273 231" fill="none" xmlns="http://www.w3.org/2000/svg">
<g clip-path="url(#clip0_2853_63384)">
<path d="M56.8645 41.8514C56.8645 41.8514 53.3501 39.4039 48.1997 41.3007C43.0493 43.1363 41.898 50.1727 43.1705 55.863C44.4429 61.5533 37.3535 81.0104 37.3535 81.0104C37.3535 81.0104 41.0497 86.2724 53.9561 84.2533C53.9561 84.2533 63.5904 66.6317 62.8633 53.905C62.0756 41.2395 56.8645 41.8514 56.8645 41.8514Z" fill="#0E3944"/>
<path d="M60.9238 63.7559C65.7713 62.165 68.7404 66.2645 71.5276 73.8516C74.3149 81.4386 75.2238 82.1729 75.2238 82.1729L85.9488 89.1481L85.0399 93.1864C85.0399 93.1864 74.8603 89.1481 72.3759 86.5783C69.8916 84.0084 62.8022 71.037 62.8022 71.037L60.9238 63.7559Z" fill="#FF9679"/>
<path d="M37.2935 112.768C37.2935 112.768 35.1727 123.536 35.5363 139.689C35.5363 139.689 27.235 152.049 34.082 187.231H37.657C37.657 187.231 40.5655 157.25 42.8074 149.173C45.0494 141.036 53.3507 138.588 53.7748 113.869L37.2935 112.768Z" fill="#FF9979"/>
<path d="M20.8701 144.401C18.81 137.487 13.4172 125.862 -0.337481 110.076C-0.337481 110.076 -1.18579 109.647 -2.27646 110.32C-3.42773 111.055 -3.42773 111.911 -3.42773 111.911C-3.42773 111.911 3.47989 127.085 7.84261 138.221C9.29684 141.954 12.8718 144.401 16.871 144.401H20.8701Z" fill="#FF9979"/>
<path d="M45.8947 157.798C45.8947 157.798 45.9553 162.999 42.5621 163.06C37.8358 163.183 37.654 157.982 32.2612 158.165C26.8684 158.349 15.7799 159.695 12.2655 151.19C10.4477 146.785 12.932 141.156 7.05445 136.934C1.17691 132.712 4.02479 127.939 7.05445 125.37C10.0841 122.8 5.7214 120.046 8.93284 118.762C9.65996 118.456 10.4477 118.517 11.1142 118.7C11.5383 118.823 11.9019 119.068 12.2655 119.312C13.9621 120.414 15.1134 122.372 15.1134 122.372C24.0206 97.7136 39.896 94.4707 39.896 94.4707L55.5896 99.9163C55.9532 138.28 45.8947 157.798 45.8947 157.798Z" fill="#164353"/>
<path d="M60.9231 63.7581C60.9231 63.7581 57.2875 64.9819 52.0765 64.1864C46.8655 63.391 45.1689 60.087 41.5333 62.2285C36.0193 65.4102 38.6248 76.4236 40.0185 82.114C40.5032 84.2555 41.1698 89.8234 39.9579 94.4735C39.9579 94.4735 47.2897 100.225 55.6515 99.9191L60.196 89.8846C60.1354 89.8846 70.0727 77.8921 60.9231 63.7581Z" fill="#98C1FF"/>
<path d="M51.5947 54.5802C51.5947 54.5802 52.2007 59.7811 50.3223 64.4924C50.3223 64.4924 53.049 68.5307 55.6545 65.8997C55.6545 65.8997 55.8968 61.1271 58.8053 55.7428C60.7443 52.1328 51.5947 54.5802 51.5947 54.5802Z" fill="#FF9679"/>
<path d="M47.4687 54.7007C47.4687 54.7007 45.1661 53.2322 45.4085 55.4961C45.7115 58.1271 48.2564 58.6166 48.4988 57.6988C48.8017 56.8422 47.4687 54.7007 47.4687 54.7007Z" fill="#FF9979"/>
<path d="M60.6165 51.8869C60.6165 51.8869 62.0708 49.5618 62.7979 51.7033C63.6462 54.2119 61.586 55.7416 60.9195 55.0685C60.253 54.3343 60.6165 51.8869 60.6165 51.8869Z" fill="#FF9979"/>
<path d="M55.829 62.5307C51.648 63.4485 48.7396 61.2458 46.9218 53.0469C45.9523 48.825 47.5277 45.7045 52.1934 44.6644C56.8591 43.6242 59.404 45.7657 60.3129 49.9875C62.3125 58.8595 60.1311 61.5517 55.829 62.5307Z" fill="#FF9979"/>
<path d="M59.586 53.2931C59.7677 53.7214 59.4648 54.2109 58.98 54.3945C58.4953 54.5781 57.9499 54.4557 57.7682 54.0274C57.5864 53.5991 57.8894 53.1096 58.3741 52.926C58.9194 52.6813 59.4648 52.8648 59.586 53.2931Z" fill="#DB614D"/>
<path d="M51.1018 55.4359C51.1624 55.8642 50.7989 56.2925 50.2535 56.3537C49.7082 56.4149 49.2234 56.1702 49.1628 55.7419C49.1022 55.3136 49.4658 54.8853 50.0111 54.8241C50.5565 54.7017 51.0412 55.0076 51.1018 55.4359Z" fill="#DB614D"/>
<path d="M56.7399 49.4396C56.6793 49.4396 56.6793 49.4396 56.6187 49.3784C55.8916 48.8889 54.9221 49.1337 54.8615 49.1337C54.7403 49.1949 54.6191 49.0725 54.6191 48.9501C54.6191 48.8278 54.6797 48.7054 54.8009 48.7054C54.8615 48.7054 56.0128 48.3995 56.8611 49.0113C56.9823 49.0725 56.9823 49.1949 56.9217 49.3172C56.8611 49.3784 56.8005 49.4396 56.7399 49.4396Z" fill="#0E3944"/>
<path d="M48.8622 51.2113C48.8016 51.2113 48.8016 51.2113 48.741 51.1501C48.6198 51.0889 48.6198 50.9665 48.6804 50.8442C49.2258 49.9264 50.377 49.6816 50.4376 49.6816C50.5588 49.6816 50.68 49.7428 50.68 49.8652C50.68 49.9876 50.6194 50.1099 50.4982 50.1099C50.4982 50.1099 49.4681 50.2935 49.044 51.0277C49.044 51.1501 48.9834 51.2113 48.8622 51.2113Z" fill="#0E3944"/>
<path d="M56.9203 51.7656C57.0415 52.3163 56.9203 52.7446 56.6173 52.8058C56.3143 52.8669 56.0114 52.4998 55.8902 51.9492C55.769 51.3985 55.8902 50.9702 56.1932 50.909C56.4355 50.8478 56.7991 51.2149 56.9203 51.7656Z" fill="#1A4850"/>
<path d="M51.1058 52.9875C51.227 53.5381 51.1058 53.9664 50.8029 54.0276C50.4999 54.0888 50.1969 53.7217 50.0757 53.171C49.9545 52.6204 50.0757 52.192 50.3787 52.1309C50.6817 52.1309 50.9846 52.498 51.1058 52.9875Z" fill="#1A4850"/>
<path d="M52.9805 57.9444C52.9805 57.9444 55.6466 57.6997 56.7978 56.7207C56.7978 56.7207 56.4949 58.801 55.0406 58.9846C53.5864 59.107 52.9805 57.9444 52.9805 57.9444Z" fill="#1A4850"/>
<path d="M55.4655 51.8271C55.4655 51.8271 55.5867 50.481 56.0714 50.4199C56.6168 50.4199 57.2227 51.3988 57.2227 51.3988L57.8892 50.8482L57.1621 51.0929C57.1621 51.0929 56.4956 50.0527 56.0108 50.1139C55.2837 50.2975 55.4655 51.8271 55.4655 51.8271Z" fill="#1A4850"/>
<path d="M51.4688 52.8652C51.4688 52.8652 50.8023 51.6415 50.3175 51.8863C49.8328 52.0698 49.7116 53.2935 49.7116 53.2935L48.8633 53.0488L49.651 52.9876C49.651 52.9876 49.7722 51.7639 50.2569 51.6415C50.9235 51.458 51.4688 52.8652 51.4688 52.8652Z" fill="#1A4850"/>
<path d="M54.3171 55.4964L54.0747 55.0681C54.4383 54.8846 54.4383 54.6398 54.4383 54.4563C54.3777 54.2115 54.1959 54.028 54.0141 54.028C53.9535 54.028 53.8324 54.0891 53.8324 54.2727L53.4082 54.0891C53.59 53.5997 53.9535 53.5385 54.0747 53.5997C54.4383 53.5997 54.8018 53.9668 54.8624 54.3951C54.9836 54.8234 54.8018 55.2517 54.3171 55.4964Z" fill="#DB614D"/>
<path d="M47.7727 56.2307C47.7727 56.2307 46.5003 51.4582 47.2274 48.093C47.2274 48.093 50.863 43.0146 57.8312 45.5232C57.8312 45.5232 59.8914 48.8884 60.9215 53.5997C60.9215 53.5997 61.1638 51.8865 60.4973 48.1542C59.8308 44.3606 56.4982 42.0356 51.9537 42.7698C47.4092 43.504 42.5617 48.093 47.7727 56.2307Z" fill="#0E3944"/>
<path d="M55.1069 44.4202C55.1069 44.4202 55.4099 45.6439 54.198 48.8868C54.198 48.8868 53.3497 47.969 52.3196 48.8868C51.2896 49.8046 49.29 49.4986 48.5629 49.9881C47.8357 50.4776 47.8357 51.5789 47.8357 51.5789C47.8357 51.5789 47.2298 50.1717 47.8357 48.5196C47.8357 48.5196 46.5027 50.294 46.6845 52.4355C46.6845 52.4355 44.8667 52.1296 44.9273 49.0703C44.9879 46.011 49.3506 40.9938 54.198 41.3609C59.0455 41.728 60.1968 49.4374 60.1968 49.4374C60.1968 49.4374 59.7726 49.0703 59.0455 49.2539C59.0455 49.2539 58.9243 47.6019 57.8336 45.5215C57.8336 45.5215 58.3184 46.99 57.8336 48.642C57.8336 48.642 56.5006 47.9078 55.4099 48.1525C55.4099 48.0913 56.0764 46.8064 55.1069 44.4202Z" fill="#0E3944"/>
<path d="M40.2631 63.2056C42.6262 61.3088 44.444 63.695 44.9287 66.9991C45.3529 70.3031 41.1114 89.8215 37.7787 89.1484C36.5063 88.8425 35.9609 83.7641 35.9609 83.7641C35.9609 83.7641 37.2334 78.2573 38.0817 69.9972C38.5059 66.2037 38.9906 64.1845 40.2631 63.2056Z" fill="#FF9979"/>
<path d="M33.3536 86.396C30.1422 83.3367 24.4464 73.1798 22.9922 67.979L25.4159 67C25.4159 67 32.6871 77.524 36.0197 80.155C39.3524 82.786 40.5036 85.7841 39.0494 88.2928C37.5346 90.8014 34.0202 87.069 33.3536 86.396Z" fill="#FF9979"/>
<path d="M24.0231 61.2506C23.8413 64.5547 26.568 65.3501 25.3561 67.9199C25.1137 68.4706 24.7502 68.7153 24.326 68.8377C23.5989 69.0824 22.7506 68.8377 22.2053 68.287C20.9328 67.0021 18.9332 65.5948 17.9032 64.983C16.6913 64.3099 17.3578 64.1264 17.3578 64.1264C17.2366 64.0652 17.1154 64.004 16.9943 64.004C16.1459 63.6369 15.4794 63.5145 16.0854 63.1474C16.7519 62.7191 19.2362 63.6369 19.2362 63.6369C16.0248 61.4954 15.1765 61.9849 15.7218 61.5566C16.5095 60.9447 19.5392 62.352 19.6604 62.4132C17.9637 60.8223 16.7519 60.4552 17.4184 60.2105C18.0849 59.9657 21.4782 62.4132 22.69 63.331C22.993 63.5145 23.1142 63.6981 23.1142 63.6981C23.1748 60.8835 24.0231 61.2506 24.0231 61.2506Z" fill="#FF9979"/>
<path d="M22.7497 63.209C23.0527 63.3925 23.1739 63.5761 23.1739 63.5761C23.1739 63.5761 22.6285 64.5551 23.3556 65.84C23.4162 65.84 22.0226 64.9222 22.7497 63.209Z" fill="#FF9679"/>
<path d="M19.9651 65.1672C19.6622 64.9837 18.0867 64.0659 17.4202 64.1271C17.299 64.0659 17.1778 64.0047 17.0566 64.0047C17.5414 63.3928 19.6622 64.9225 19.9651 65.1672Z" fill="#FF9679"/>
<path d="M32.6836 114.415C32.6836 114.782 32.3809 115.087 32.0176 115.087C31.6543 115.087 31.3516 114.782 31.3516 114.415C31.3516 114.048 31.6543 113.742 32.0176 113.742C32.3809 113.803 32.6836 114.048 32.6836 114.415Z" fill="#60A0BF"/>
<path d="M44.2012 118.944C44.2012 119.311 43.8985 119.617 43.5352 119.617C43.1719 119.617 42.8691 119.311 42.8691 118.944C42.8691 118.577 43.1719 118.271 43.5352 118.271C43.8985 118.271 44.2012 118.577 44.2012 118.944Z" fill="#60A0BF"/>
<path d="M54.0157 121.329C54.0157 121.696 53.7129 122.001 53.3496 122.001C52.9863 122.001 52.6836 121.696 52.6836 121.329C52.6836 120.962 52.9863 120.656 53.3496 120.656C53.7129 120.656 54.0157 120.962 54.0157 121.329Z" fill="#60A0BF"/>
<path d="M38.9278 105.909C38.9278 106.276 38.625 106.581 38.2617 106.581C37.8984 106.581 37.5957 106.276 37.5957 105.909C37.5957 105.542 37.8984 105.236 38.2617 105.236C38.625 105.236 38.9278 105.542 38.9278 105.909Z" fill="#60A0BF"/>
<path d="M40.4453 112.761C40.8132 112.761 41.1114 112.46 41.1114 112.089C41.1114 111.717 40.8132 111.416 40.4453 111.416C40.0775 111.416 39.7793 111.717 39.7793 112.089C39.7793 112.46 40.0775 112.761 40.4453 112.761Z" fill="#60A0BF"/>
<path d="M51.3516 115.637C51.3516 116.004 51.0489 116.31 50.6856 116.31C50.3223 116.31 50.0195 116.004 50.0195 115.637C50.0195 115.271 50.3223 114.965 50.6856 114.965C51.0489 114.965 51.3516 115.271 51.3516 115.637Z" fill="#60A0BF"/>
<path d="M52.7422 104.928C52.7422 105.295 52.4395 105.601 52.0762 105.601C51.7129 105.601 51.4102 105.295 51.4102 104.928C51.4102 104.562 51.7129 104.256 52.0762 104.256C52.4395 104.256 52.7422 104.562 52.7422 104.928Z" fill="#60A0BF"/>
<path d="M45.4121 103.4C45.78 103.4 46.0782 103.099 46.0782 102.727C46.0782 102.356 45.78 102.055 45.4121 102.055C45.0443 102.055 44.7461 102.356 44.7461 102.727C44.7461 103.099 45.0443 103.4 45.4121 103.4Z" fill="#60A0BF"/>
<path d="M26.9336 127.202C26.9336 127.569 26.6309 127.874 26.2676 127.874C25.9043 127.874 25.6016 127.569 25.6016 127.202C25.6016 126.835 25.9043 126.529 26.2676 126.529C26.6309 126.529 26.9336 126.835 26.9336 127.202Z" fill="#60A0BF"/>
<path d="M17.7207 124.389C17.7207 124.756 17.418 125.062 17.0547 125.062C16.6914 125.062 16.3887 124.756 16.3887 124.389C16.3887 124.023 16.6914 123.717 17.0547 123.717C17.418 123.778 17.7207 124.023 17.7207 124.389Z" fill="#60A0BF"/>
<path d="M12.209 119.309C12.0879 119.492 11.9063 119.614 11.6641 119.614C11.3008 119.614 10.998 119.309 10.998 118.942C10.998 118.881 10.998 118.758 11.0586 118.697C11.4824 118.881 11.8457 119.064 12.209 119.309Z" fill="#60A0BF"/>
<path d="M29.5996 136.38C29.9675 136.38 30.2657 136.079 30.2657 135.708C30.2657 135.336 29.9675 135.035 29.5996 135.035C29.2318 135.035 28.9336 135.336 28.9336 135.708C28.9336 136.079 29.2318 136.38 29.5996 136.38Z" fill="#60A0BF"/>
<path d="M13.7207 144.946C13.7207 145.313 13.418 145.619 13.0547 145.619C12.6914 145.619 12.3887 145.313 12.3887 144.946C12.3887 144.579 12.6914 144.273 13.0547 144.273C13.418 144.273 13.7207 144.579 13.7207 144.946Z" fill="#60A0BF"/>
<path d="M19.8418 139.992C20.2097 139.992 20.5079 139.69 20.5079 139.319C20.5079 138.948 20.2097 138.646 19.8418 138.646C19.474 138.646 19.1758 138.948 19.1758 139.319C19.1758 139.69 19.474 139.992 19.8418 139.992Z" fill="#60A0BF"/>
<path d="M9.72268 135.035C10.0905 135.035 10.3887 134.733 10.3887 134.362C10.3887 133.991 10.0905 133.689 9.72268 133.689C9.35483 133.689 9.05664 133.991 9.05664 134.362C9.05664 134.733 9.35483 135.035 9.72268 135.035Z" fill="#60A0BF"/>
<path d="M18.5098 153.942C18.5098 154.309 18.2071 154.615 17.8438 154.615C17.4805 154.615 17.1777 154.309 17.1777 153.942C17.1777 153.575 17.4805 153.27 17.8438 153.27C18.2071 153.27 18.5098 153.575 18.5098 153.942Z" fill="#60A0BF"/>
<path d="M24.6895 119.555C24.6895 119.922 24.3868 120.228 24.0235 120.228C23.6602 120.228 23.3574 119.922 23.3574 119.555C23.3574 119.189 23.6602 118.883 24.0235 118.883C24.3868 118.944 24.6895 119.25 24.6895 119.555Z" fill="#60A0BF"/>
<path d="M30.8692 108.604C30.8692 108.971 30.5664 109.277 30.2032 109.277C29.8399 109.277 29.5371 108.971 29.5371 108.604C29.5371 108.237 29.8399 107.932 30.2032 107.932C30.5664 107.932 30.8692 108.237 30.8692 108.604Z" fill="#60A0BF"/>
<path d="M37.8965 99.4245C37.8965 99.7914 37.5938 100.097 37.2305 100.097C36.8672 100.097 36.5645 99.7914 36.5645 99.4245C36.5645 99.0577 36.8672 98.752 37.2305 98.752C37.6543 98.752 37.8965 99.0577 37.8965 99.4245Z" fill="#60A0BF"/>
<path d="M23.6582 112.76C23.6582 113.127 23.3555 113.433 22.9922 113.433C22.6289 113.433 22.3262 113.127 22.3262 112.76C22.3262 112.394 22.6289 112.088 22.9922 112.088C23.3555 112.088 23.6582 112.394 23.6582 112.76Z" fill="#60A0BF"/>
<path d="M31.5352 102.055C31.5352 102.422 31.2325 102.728 30.8692 102.728C30.5059 102.728 30.2031 102.422 30.2031 102.055C30.2031 101.689 30.5059 101.383 30.8692 101.383C31.2325 101.383 31.5352 101.689 31.5352 102.055Z" fill="#60A0BF"/>
<path d="M19.1758 131.483C19.1758 131.85 18.8731 132.156 18.5098 132.156C18.1465 132.156 17.8438 131.85 17.8438 131.483C17.8438 131.116 18.1465 130.811 18.5098 130.811C18.8731 130.811 19.1758 131.116 19.1758 131.483Z" fill="#60A0BF"/>
<path d="M11.0567 125.733C11.0567 126.1 10.7539 126.406 10.3906 126.406C10.0274 126.406 9.72461 126.1 9.72461 125.733C9.72461 125.366 10.0274 125.061 10.3906 125.061C10.7539 125.061 11.0567 125.366 11.0567 125.733Z" fill="#60A0BF"/>
<path d="M33.959 124.451C34.3268 124.451 34.625 124.149 34.625 123.778C34.625 123.407 34.3268 123.105 33.959 123.105C33.5912 123.105 33.293 123.407 33.293 123.778C33.293 124.149 33.5912 124.451 33.959 124.451Z" fill="#60A0BF"/>
<path d="M47.3535 127.874C47.7214 127.874 48.0196 127.573 48.0196 127.202C48.0196 126.83 47.7214 126.529 47.3535 126.529C46.9857 126.529 46.6875 126.83 46.6875 127.202C46.6875 127.573 46.9857 127.874 47.3535 127.874Z" fill="#60A0BF"/>
<path d="M47.3477 108.604C47.3477 108.971 47.045 109.277 46.6817 109.277C46.3184 109.277 46.0156 108.971 46.0156 108.604C46.0156 108.237 46.3184 107.932 46.6817 107.932C47.045 107.932 47.3477 108.237 47.3477 108.604Z" fill="#60A0BF"/>
<path d="M55.1055 109.948C55.1055 110.315 54.8028 110.62 54.4395 110.62C54.0762 110.62 53.7734 110.315 53.7734 109.948C53.7734 109.581 54.0762 109.275 54.4395 109.275C54.8028 109.275 55.1055 109.581 55.1055 109.948Z" fill="#60A0BF"/>
<path d="M39.5957 132.098C39.5957 132.465 39.293 132.771 38.9297 132.771C38.5664 132.771 38.2637 132.465 38.2637 132.098C38.2637 131.731 38.5664 131.426 38.9297 131.426C39.293 131.426 39.5957 131.793 39.5957 132.098Z" fill="#60A0BF"/>
<path d="M33.293 144.396C33.6608 144.396 33.959 144.095 33.959 143.723C33.959 143.352 33.6608 143.051 33.293 143.051C32.9251 143.051 32.627 143.352 32.627 143.723C32.627 144.095 32.9251 144.396 33.293 144.396Z" fill="#60A0BF"/>
<path d="M23.416 146.292C23.7839 146.292 24.0821 145.991 24.0821 145.62C24.0821 145.248 23.7839 144.947 23.416 144.947C23.0482 144.947 22.75 145.248 22.75 145.62C22.75 145.991 23.0482 146.292 23.416 146.292Z" fill="#60A0BF"/>
<path d="M50.6856 136.38C51.0534 136.38 51.3516 136.079 51.3516 135.708C51.3516 135.336 51.0534 135.035 50.6856 135.035C50.3177 135.035 50.0195 135.336 50.0195 135.708C50.0195 136.079 50.3177 136.38 50.6856 136.38Z" fill="#60A0BF"/>
<path d="M42.3809 140.663C42.3809 141.03 42.0782 141.335 41.7149 141.335C41.3516 141.335 41.0488 141.03 41.0488 140.663C41.0488 140.296 41.3516 139.99 41.7149 139.99C42.0782 139.99 42.3809 140.296 42.3809 140.663Z" fill="#60A0BF"/>
<path d="M28.9317 155.229C28.9317 155.596 28.6289 155.902 28.2656 155.902C27.9024 155.902 27.5996 155.596 27.5996 155.229C27.5996 154.862 27.9024 154.557 28.2656 154.557C28.6289 154.557 28.9317 154.862 28.9317 155.229Z" fill="#60A0BF"/>
<path d="M38.2617 152.47C38.6296 152.47 38.9278 152.169 38.9278 151.798C38.9278 151.426 38.6296 151.125 38.2617 151.125C37.8939 151.125 37.5957 151.426 37.5957 151.798C37.5957 152.169 37.8939 152.47 38.2617 152.47Z" fill="#60A0BF"/>
<path d="M47.8946 148.677C48.2624 148.677 48.5606 148.376 48.5606 148.005C48.5606 147.633 48.2624 147.332 47.8946 147.332C47.5267 147.332 47.2285 147.633 47.2285 148.005C47.2285 148.376 47.5267 148.677 47.8946 148.677Z" fill="#60A0BF"/>
<path d="M44.1973 159.204C44.1973 159.571 43.8946 159.876 43.5313 159.876C43.168 159.876 42.8652 159.571 42.8652 159.204C42.8652 158.837 43.168 158.531 43.5313 158.531C43.8946 158.531 44.1973 158.837 44.1973 159.204Z" fill="#60A0BF"/>
<path d="M43.473 193.594H32.8692C32.2027 191.575 33.4751 189.617 33.2328 187.843C32.8692 184.845 34.5658 186.497 34.5658 186.497C34.8688 183.315 39.2921 182.703 39.2921 184.11C39.2315 186.191 39.5951 187.537 40.201 188.393C41.4129 190.168 43.3518 190.107 43.7154 191.391C43.776 191.514 43.776 191.636 43.776 191.759C44.1395 193.288 43.473 193.594 43.473 193.594Z" fill="#164353"/>
<path d="M43.7741 191.762C41.5928 192.251 36.5029 191.578 36.3212 190.293C36.1394 189.07 38.8661 188.458 40.1991 188.396C41.411 190.171 43.35 190.11 43.7135 191.395C43.7741 191.517 43.7741 191.639 43.7741 191.762Z" fill="#205260"/>
<path d="M-0.153765 110.5C-1.30504 109.46 -3.12283 111.173 -3.12283 111.173C-3.12283 111.173 -2.15334 112.641 -2.75927 113.253C-3.4258 113.865 -4.15292 112.458 -5.42538 113.069C-5.54656 113.131 -5.60715 113.192 -5.72834 113.253C-6.69783 113.865 -7.72792 115.089 -8.57622 116.006C-8.758 116.19 -8.87919 116.374 -9.06097 116.557C-10.0305 117.597 -12.5148 118.148 -12.9995 115.456C-13.4843 112.764 -10.4546 109.582 -7.12199 106.645C-3.78936 103.708 -1.6686 105.482 -1.6686 105.482C-1.6686 105.482 -0.941477 106.706 -0.941477 107.502C-0.941477 108.236 -0.274951 108.664 0.0886078 109.398C0.573354 110.071 -0.153765 110.5 -0.153765 110.5Z" fill="#164353"/>
<path d="M190.957 188.946C190.411 188.64 189.927 188.028 189.502 187.294C189.502 187.294 189.139 185.03 189.502 182.583C189.866 180.196 188.836 178.238 185.503 177.504C182.231 176.77 180.292 178.361 181.019 185.03C180.535 187.783 180.413 190.965 181.565 193.596H191.623C191.623 193.596 193.259 190.17 190.957 188.946Z" fill="#98C1FF"/>
<path d="M199.802 153.211C199.802 153.211 199.802 159.819 196.106 166.611C192.349 173.525 187.684 183.009 187.684 183.009C187.684 183.009 184.593 186.068 182.594 180.99C182.594 180.99 183.987 163.368 187.199 156.882C190.41 150.397 199.802 153.211 199.802 153.211Z" fill="#FF9979"/>
<path d="M248.093 131.611C248.093 131.611 254.092 157.065 257.91 163.795C257.91 163.795 257.061 166.61 252.88 167.466C252.88 167.466 239.853 148.132 239.005 139.933C238.156 131.795 248.093 131.611 248.093 131.611Z" fill="#FF9979"/>
<path d="M250.944 137.61C249.368 141.465 237.007 141.709 237.007 141.709L236.038 140.302L235.795 139.935L233.856 137.059C233.856 137.059 213.436 116.868 209.498 118.52C209.377 118.581 209.256 118.642 209.134 118.703C206.408 120.661 206.165 131.491 202.893 149.602C202.59 151.316 201.924 153.335 201.378 154.681C201.318 154.803 201.257 154.987 201.197 155.109C200.894 155.904 200.712 156.394 200.712 156.394C188.23 161.472 184.17 151.438 184.17 151.438C184.17 151.438 184.291 151.132 184.533 150.704C184.594 150.581 184.655 150.459 184.715 150.337C185.382 148.868 186.412 146.359 186.412 145.013C186.412 143.545 186.412 142.138 186.351 140.792C186.351 140.669 186.351 140.547 186.351 140.424C186.351 136.08 186.351 132.287 186.351 128.983V128.615C186.351 127.208 186.412 125.862 186.412 124.577V124.21C186.533 118.459 186.715 114.665 186.897 112.095C186.897 111.973 186.897 111.85 186.897 111.728C187.26 107.445 187.624 107.017 187.624 107.017L185.139 89.5176H212.406C212.406 89.5176 216.527 93.6782 221.798 99.1238C221.919 99.2462 222.041 99.3685 222.101 99.4297C224.04 101.388 226.1 103.529 228.161 105.732C228.221 105.793 228.342 105.915 228.403 105.977C229.251 106.833 230.039 107.69 230.887 108.546C231.008 108.669 231.069 108.73 231.19 108.852C233.917 111.728 236.583 114.543 238.825 116.99C238.886 117.051 239.007 117.174 239.067 117.235C242.158 120.6 244.521 123.353 245.369 124.577C247.55 127.942 249.186 132.225 250.156 134.918C250.217 135.04 250.217 135.162 250.277 135.285C250.701 136.753 250.944 137.61 250.944 137.61Z" fill="#8B383E"/>
<path d="M191.742 109.771C190.651 111.117 189.015 111.913 186.955 112.218C186.955 112.096 186.955 111.974 186.955 111.851C188.894 111.545 190.469 110.811 191.5 109.526C193.378 107.324 193.075 104.264 193.075 104.264L193.439 104.203C193.439 104.387 193.742 107.446 191.742 109.771Z" fill="#662C33"/>
<path d="M222.161 99.5527C222.04 99.5527 221.98 99.5527 221.858 99.5527C218.829 99.5527 215.678 96.1874 215.496 96.0651L215.738 95.8203C215.799 95.8815 218.95 99.1855 221.858 99.2467C221.919 99.3691 222.04 99.4915 222.161 99.5527Z" fill="#662C33"/>
<path d="M201.499 154.743C201.439 154.866 201.378 155.049 201.317 155.172C199.318 155.906 197.44 156.212 195.743 156.212C190.35 156.212 186.654 153.091 184.594 150.705C184.654 150.583 184.715 150.46 184.776 150.338C187.381 153.458 192.956 157.986 201.499 154.743Z" fill="#662C33"/>
<path d="M208.772 112.22C209.196 114.178 209.499 116.319 209.499 118.522C209.378 118.583 209.257 118.644 209.135 118.705C209.135 108.426 203.258 100.472 203.197 100.35L203.44 100.166C203.5 100.227 206.954 105 208.651 111.853C209.317 111.424 209.802 110.751 209.984 109.895C210.832 106.285 206.954 100.411 206.954 100.35L207.257 100.166C207.439 100.411 211.256 106.223 210.347 109.956C210.165 110.996 209.62 111.73 208.772 112.22Z" fill="#662C33"/>
<path d="M239.127 117.418C238.097 118.519 237.188 119.437 237.066 119.559L236.885 119.743L236.824 119.498C235.491 116.01 227.008 108.485 226.947 108.362L226.826 108.24L228.22 105.854C228.28 105.915 228.402 106.037 228.462 106.098L227.25 108.056C228.886 108.607 230.098 108.729 230.886 108.607C231.007 108.729 231.068 108.79 231.189 108.913C230.886 108.974 230.644 108.974 230.28 108.974C229.492 108.974 228.644 108.79 227.674 108.546C229.613 110.32 235.552 115.888 236.945 119.009C237.491 118.458 238.157 117.785 238.824 117.051C238.945 117.234 239.066 117.295 239.127 117.418Z" fill="#662C33"/>
<path d="M192.591 140.732H192.469C192.348 140.794 190.833 141.1 189.076 141.1C188.167 141.1 187.258 141.038 186.41 140.794C186.41 140.671 186.41 140.549 186.41 140.427C188.652 141.1 191.621 140.549 192.288 140.427L191.742 126.293C191.439 127.088 190.773 128.128 189.622 128.74C189.076 129.046 188.41 129.168 187.743 129.168C187.319 129.168 186.895 129.107 186.471 129.046V128.679C187.622 128.924 188.652 128.862 189.5 128.434C190.955 127.7 191.5 126.17 191.682 125.558C190.53 125.742 188.289 125.13 186.592 124.641V124.273C188.47 124.824 190.955 125.497 191.864 125.191L192.106 125.13L192.591 140.732Z" fill="#662C33"/>
<path d="M250.279 135.47C248.34 137.428 244.34 140.426 238.16 140.426C237.493 140.426 236.827 140.365 236.1 140.304L235.857 139.937C243.371 140.793 248.037 137.244 250.157 135.164C250.218 135.225 250.279 135.348 250.279 135.47Z" fill="#662C33"/>
<path d="M217.433 15.1781C217.433 15.1781 216.705 13.4648 213.494 13.4648C211.07 13.4648 210.101 14.8109 210.101 14.8109C208.647 19.094 207.071 35.6142 206.526 36.1649C206.223 36.4708 188.166 48.7692 188.166 48.7692C197.982 48.9528 204.102 61.19 204.102 61.19C204.405 57.1517 215.494 41.3045 215.615 39.836C215.918 37.1439 220.583 25.2126 217.433 15.1781Z" fill="#CE364C"/>
<path d="M186.106 101.265C186.106 101.265 186.045 104.692 187.136 104.937C188.227 105.181 197.195 107.812 207.495 103.101C217.796 98.3897 219.614 94.8409 216.584 92.2711C213.555 89.7012 186.106 101.265 186.106 101.265Z" fill="#CE364C"/>
<path d="M181.926 51.0912C181.926 51.0912 172.534 49.9899 167.142 52.3149C167.142 52.3149 165.627 59.0454 173.019 74.0972C180.412 89.1489 178.715 98.6328 187.016 102.182C194.409 105.363 216.222 95.9406 216.889 92.8201C218.585 84.9883 205.255 71.1602 204.467 63.1449C203.679 55.1907 195.923 43.1982 181.926 51.0912Z" fill="#F24052"/>
<path d="M167.202 52.316C160.658 54.6411 153.266 62.1058 153.266 65.7157C153.266 69.3257 159.446 70.6718 159.446 70.6718L169.565 65.7157C169.565 65.7157 172.474 63.6966 170.595 57.7616C168.717 51.7653 167.202 52.316 167.202 52.316Z" fill="#CE364C"/>
<path d="M194.108 58.9849C192.169 58.9849 189.745 58.2507 188.23 57.2105C187.382 56.5986 186.897 55.9256 186.776 55.2526C186.413 52.9275 188.655 51.7038 188.776 51.6426L189.079 52.2544C189.018 52.3156 187.14 53.2946 187.443 55.1302C187.503 55.6197 187.927 56.1703 188.594 56.6598C190.291 57.8836 193.199 58.6178 195.138 58.2507C195.986 58.1283 196.532 57.7612 196.835 57.3329C197.138 56.7822 196.895 56.1092 196.895 56.1092L197.501 55.8644C197.501 55.9256 197.865 56.7822 197.441 57.6388C197.077 58.3119 196.35 58.7402 195.32 58.9237C194.896 58.9237 194.532 58.9849 194.108 58.9849Z" fill="#98C1FF"/>
<path d="M185.807 66.1453C184.352 66.1453 181.929 65.5335 181.626 63.1472C181.444 61.9235 181.565 60.8833 181.686 60.0267C181.807 58.6806 181.929 57.6405 181.202 56.4168C179.929 54.3364 178.232 54.2141 178.172 54.2141L178.232 53.541C178.293 53.541 180.353 53.6634 181.807 56.0496C182.716 57.5181 182.535 58.7418 182.413 60.0879C182.292 61.0057 182.232 61.9235 182.353 63.086C182.716 65.6559 185.988 65.5335 186.11 65.5335L186.17 66.2065C185.988 66.1453 185.928 66.1453 185.807 66.1453Z" fill="#98C1FF"/>
<path d="M187.862 53.9687C187.862 53.9687 192.831 50.5422 191.619 46.8711C190.467 43.1999 174.471 43.4447 170.35 47.85C166.23 52.2554 179.258 55.1924 179.258 55.1924C180.288 53.112 186.711 52.8673 187.862 53.9687Z" fill="#CE364C"/>
<path d="M178.958 53.3564C176.595 52.561 175.201 50.8478 175.686 48.8286C176.17 46.8707 186.29 46.8095 188.229 48.4003C190.168 49.9912 187.441 56.2933 178.958 53.3564Z" fill="#A02E44"/>
<path d="M177.809 47.7889C177.809 47.7889 179.869 51.3989 178.899 53.3568C178.899 53.3568 186.049 55.8654 186.049 51.8272C186.049 51.8272 184.716 48.829 185.201 46.8711L177.809 47.7889Z" fill="#FF9679"/>
<path d="M175.443 44.6656C175.443 44.6656 171.928 38.9753 172.231 33.5909C172.413 30.8988 173.746 29.7974 173.746 29.7974C173.746 29.7974 172.656 28.2066 173.807 25.8203C173.807 25.8203 175.443 27.7783 181.26 27.1664C186.834 26.5545 187.44 30.5928 187.44 30.5928C191.439 31.2047 188.713 43.4419 185.925 44.6656H175.443Z" fill="#FFB878"/>
<path d="M173.928 39.4032C173.928 39.4032 171.928 37.3841 171.686 39.7704C171.383 42.5237 173.867 43.6251 174.352 42.7685C174.837 41.8507 173.928 39.4032 173.928 39.4032Z" fill="#FF9979"/>
<path d="M188.049 39.5263C188.049 39.5263 190.048 37.5071 190.291 39.8934C190.594 42.6468 188.109 43.7481 187.625 42.8915C187.2 42.0349 188.049 39.5263 188.049 39.5263Z" fill="#FF9979"/>
<path d="M180.777 49.3778C176.293 49.3778 173.748 46.4409 173.748 37.5689C173.748 32.9799 176.051 30.2266 181.08 30.2266C186.109 30.2266 188.23 33.0411 188.23 37.5689C188.23 47.1139 185.443 49.3778 180.777 49.3778Z" fill="#FF9979"/>
<path d="M186.776 40.7487C186.836 41.177 186.473 41.6665 185.927 41.7277C185.382 41.85 184.837 41.5441 184.776 41.0546C184.716 40.6263 185.079 40.1368 185.624 40.0756C186.17 40.0145 186.655 40.2592 186.776 40.7487Z" fill="#DB614D"/>
<path d="M177.561 40.9959C177.561 41.4854 177.016 41.7913 176.471 41.7913C175.925 41.7302 175.441 41.363 175.501 40.8735C175.501 40.3841 176.047 40.0781 176.592 40.0781C177.137 40.1393 177.561 40.5064 177.561 40.9959Z" fill="#DB614D"/>
<path d="M184.773 35.9762C184.713 35.9762 184.652 35.9762 184.591 35.915C183.864 35.3643 182.834 35.5479 182.774 35.5479C182.652 35.5479 182.531 35.4867 182.531 35.3643C182.531 35.2419 182.592 35.1196 182.713 35.1196C182.774 35.1196 183.985 34.8748 184.894 35.5479C185.016 35.609 185.016 35.7926 184.955 35.8538C184.894 35.9762 184.834 35.9762 184.773 35.9762Z" fill="#FFB878"/>
<path d="M176.229 36.0396C176.169 36.0396 176.108 35.9784 176.108 35.9784C176.048 35.8561 176.048 35.7337 176.169 35.6725C177.017 34.9995 178.229 35.183 178.29 35.183C178.411 35.183 178.471 35.3054 178.471 35.4278C178.471 35.5501 178.35 35.6113 178.229 35.6113C178.229 35.6113 177.138 35.4278 176.472 36.0396C176.351 36.0396 176.29 36.0396 176.229 36.0396Z" fill="#FFB878"/>
<path d="M184.35 38.548C184.35 39.0987 184.108 39.5881 183.805 39.5881C183.502 39.5881 183.26 39.1598 183.26 38.548C183.26 37.9973 183.502 37.5078 183.805 37.5078C184.047 37.5078 184.35 37.9973 184.35 38.548Z" fill="#1A4850"/>
<path d="M178.35 38.548C178.35 39.0987 178.108 39.5881 177.805 39.5881C177.502 39.5881 177.26 39.1598 177.26 38.548C177.26 37.9973 177.502 37.5078 177.805 37.5078C178.108 37.5078 178.35 37.9973 178.35 38.548Z" fill="#1A4850"/>
<path d="M175.143 31.2034C175.143 31.2034 179.93 32.9778 186.777 32.4883C186.777 32.4883 188.231 34.3239 188.049 40.8096C188.049 40.8096 192.048 29.123 180.354 29.123C168.659 29.123 173.931 40.5037 173.931 40.5037C173.931 40.5037 173.022 33.3449 175.143 31.2034Z" fill="#FFB878"/>
<path d="M181.078 41.5432L180.715 41.1761L181.624 40.2583C180.775 39.0346 180.775 36.22 180.775 36.0977H181.26C181.26 36.0977 181.26 39.157 182.108 40.1359L182.29 40.3195L181.078 41.5432Z" fill="#DB614D"/>
<path d="M178.111 43.0123C178.111 43.0123 182.535 43.1958 184.716 42.584C184.716 42.584 185.08 45.8268 181.686 46.0104C178.111 46.194 178.111 43.0123 178.111 43.0123Z" fill="#1A4850"/>
<path d="M196.951 55.2548C197.799 55.0713 197.678 57.3336 196.951 56.661C196.164 56.0496 196.103 55.4382 196.951 55.2548Z" fill="#98C1FF"/>
<path d="M186.773 66.0194C186.651 66.8753 184.593 66.0805 185.44 65.5302C186.349 65.0411 186.954 65.1634 186.773 66.0194Z" fill="#98C1FF"/>
<path d="M177.748 70.6699C177.748 70.6699 176.415 74.1575 176.476 76.0543C176.536 78.0123 177.203 77.7675 177.203 77.7675C177.203 77.7675 176.173 78.1958 175.991 79.2972C175.809 80.3985 178.596 81.2551 178.778 81.2551C178.96 81.2551 180.96 80.5209 180.96 80.5209L181.384 74.1575L179.627 73.0562L177.748 70.6699Z" fill="#FF9679"/>
<path d="M178.835 70.2441C178.835 70.2441 181.259 71.7738 182.228 72.6916C183.198 73.6094 182.652 80.8293 182.228 81.1964C181.804 81.5636 178.714 82.2366 178.108 81.8695C177.502 81.5024 178.35 79.3609 178.35 79.3609C178.35 79.3609 179.926 78.9937 179.683 79.6056C179.441 80.2175 179.683 80.707 179.683 80.707L180.35 80.4622C180.35 80.4622 180.047 78.8714 180.35 77.6477C180.653 76.4851 178.169 75.2002 177.866 73.0587C177.502 70.7948 178.835 70.2441 178.835 70.2441Z" fill="#FF9979"/>
<path d="M153.629 66.6925C152.841 63.3272 156.174 62.1035 160.84 62.6542C166.233 63.3272 177.261 64.7345 179.684 70.6084C179.684 70.6084 180.472 72.9334 178.412 74.0348C172.777 77.2165 155.083 73.0558 153.629 66.6925Z" fill="#CE364C"/>
<path d="M170.473 64.4933C170.473 64.4933 164.05 61.8011 160.838 61.5564C157.687 61.2505 165.262 64.065 170.473 64.4933Z" fill="#A02E44"/>
<path d="M218.585 6.11969C218.1 6.67037 217.312 8.87306 217.312 8.87306C216.949 10.7086 216.767 11.6876 216.161 12.5442C215.555 13.4008 215.858 14.8693 215.858 14.8693C215.858 14.8693 213.434 16.1542 211.374 14.5634C211.374 14.5634 211.617 13.0949 211.374 12.6666C210.95 11.81 209.617 11.3817 209.132 9.72967C208.648 8.07764 207.254 6.18088 207.254 6.18088C207.254 6.18088 207.678 5.32427 208.405 5.81376C209.132 6.36444 209.617 7.71053 209.981 7.8329C210.041 7.8329 210.162 7.89409 210.223 7.89409C210.526 7.95527 210.829 7.89409 211.011 7.71053C211.011 7.71053 211.071 7.71053 211.071 7.64934C211.738 6.85392 211.92 4.59004 211.859 3.54988C211.798 2.1426 211.859 0.123456 212.707 0.490572C213.556 0.796503 212.768 1.59192 213.434 4.7736L213.737 4.83478C213.798 5.07953 214.404 2.93802 214.525 0.918875C214.646 -0.488405 215.495 0.06227 215.737 0.490572C215.919 0.918875 215.616 2.32615 215.555 3.30513C215.495 3.97818 215.434 4.65123 215.434 5.07953L215.798 5.26309C217.131 2.87683 216.706 1.89785 217.494 1.83667C218.282 1.77548 217.979 3.79462 217.555 4.59004C217.373 4.89597 217.191 5.6302 217.07 6.30325C218.464 4.65123 218.282 3.85581 218.948 3.91699C219.615 3.97818 219.009 5.56902 218.585 6.11969Z" fill="#FF9979"/>
<path d="M212.525 9.91104C212.041 8.62614 210.344 8.01428 210.162 7.95309C210.465 8.01428 210.768 7.95309 210.95 7.76953C212.646 8.44258 212.525 9.91104 212.525 9.91104Z" fill="#FF9679"/>
<path d="M183.319 183.622C183.319 183.622 182.41 181.725 183.198 180.868C184.046 180.073 185.016 181.602 186.41 181.235C187.803 180.868 188.167 179.889 188.53 181.235C188.894 182.704 188.47 187.048 183.319 183.622Z" fill="#98C1FF"/>
<path d="M188.653 183.559C188.653 183.559 184.835 184.905 182.896 183.559L183.381 185.211C183.381 185.211 187.502 185.639 188.108 184.599L188.653 183.559Z" fill="#5F78BA"/>
<path d="M188.59 185.641C188.59 185.641 185.075 185.152 183.439 186.008V186.804C183.439 186.804 187.984 185.702 189.438 186.804L188.59 185.641Z" fill="#5F78BA"/>
<path d="M183.26 188.578C183.26 188.578 183.926 186.926 186.047 186.804C188.168 186.682 189.622 187.844 189.622 187.844C189.622 187.844 186.229 186.437 183.26 188.578Z" fill="#5F78BA"/>
<path d="M272.997 165.449C266.332 174.443 257.182 176.218 257.182 176.218C254.516 174.076 254.455 171.567 254.455 171.567C254.455 171.567 251.91 169.242 251.547 168.141C251.183 167.04 253.728 163.736 255.243 164.042C256.273 164.286 256.879 165.143 257.182 165.632C255.91 162.757 256.94 161.778 258.697 162.022C260.575 162.267 258.818 162.695 260.151 164.225C260.272 164.347 260.333 164.409 260.454 164.531C260.696 164.715 260.999 164.837 261.302 164.898C261.605 164.959 261.908 164.959 262.272 164.959C262.454 164.959 262.635 164.959 262.817 164.898C263.181 164.837 263.484 164.776 263.847 164.653C264.393 164.47 264.999 164.225 265.544 163.919C267.846 162.634 268.816 162.206 270.573 162.634C272.33 163.063 272.33 164.409 272.33 164.409L272.997 165.449Z" fill="#98C1FF"/>
<path d="M272.995 165.448C266.329 174.442 257.18 176.217 257.18 176.217C261.845 174.197 266.087 171.566 268.995 168.324C271.964 165.02 272.995 165.448 272.995 165.448Z" fill="#5F78BA"/>
<path d="M260.515 164.531C260.757 164.715 261.06 164.837 261.363 164.898C259.606 165.265 259.485 166.856 259.485 166.856L258.758 166.612C258.879 164.654 260.394 164.531 260.515 164.531Z" fill="#5F78BA"/>
<path d="M261.669 166.978H260.881C260.578 165.877 260.942 165.204 261.366 164.775C261.669 164.837 261.972 164.837 262.336 164.837C261.366 165.816 261.669 166.978 261.669 166.978Z" fill="#5F78BA"/>
<path d="M263.606 166.55L262.818 166.672C262.515 165.877 262.576 165.265 262.818 164.837C263.182 164.775 263.485 164.714 263.848 164.592C263.243 165.571 263.606 166.55 263.606 166.55Z" fill="#5F78BA"/>
<path d="M188.716 82.7861C188.716 82.7861 190.473 92.2087 186.959 95.9411C183.445 99.6734 185.747 96.6141 186.838 91.7804C187.868 86.9467 187.08 81.8683 188.716 82.7861Z" fill="#CE364C"/>
<path d="M204.828 78.5633C204.828 78.5633 210.342 80.3989 213.19 85.5386C213.251 85.5386 209.373 77.2172 204.828 78.5633Z" fill="#CE364C"/>
<path d="M61.8315 8.62803C62.5586 8.62803 64.6793 9.48464 64.6793 9.48464C66.2548 10.4636 67.1031 11.0143 68.1331 11.0755C69.1632 11.1978 69.5874 12.9722 69.5874 12.9722C69.5874 12.9722 73.6471 13.89 73.8895 11.259C73.8895 11.259 71.587 8.01617 71.4658 7.58787C71.1628 6.73126 71.7082 5.38517 70.7993 3.9167C69.8904 2.44824 69.4662 0.123168 69.4662 0.123168C69.4662 0.123168 68.5573 -0.182763 68.4361 0.735028C68.3149 1.65282 68.9815 2.87654 68.8603 3.30484C68.7997 3.36603 68.7997 3.42722 68.7391 3.54959C68.5573 3.79433 68.3149 3.97789 68.0726 3.97789H68.012C66.9819 3.97789 65.2247 2.50942 64.4976 1.83638C63.4675 0.8574 62.0132 -0.427507 61.6497 0.429098C61.2861 1.2857 62.4374 1.22452 64.3158 3.85552L64.134 4.10026C64.2552 4.28382 62.3162 3.30484 60.7408 2.08112C59.6501 1.22452 59.4077 2.26468 59.6501 2.69298C59.8319 3.12129 61.0437 3.85552 61.8315 4.46738C62.3768 4.89568 62.8615 5.32398 63.2251 5.56873L63.1039 5.99703C60.4378 5.38517 60.0137 4.40619 59.4683 4.95687C58.923 5.50754 60.559 6.67008 61.4073 6.85364C61.7709 6.91482 62.3768 7.28194 62.9827 7.64906C60.862 7.58787 60.3166 6.91482 59.9531 7.4655C59.5289 8.01617 61.1043 8.62803 61.8315 8.62803Z" fill="#FF9979"/>
<path d="M68.6161 6.67127C67.9495 5.44755 68.6767 3.79553 68.7373 3.55078C68.5555 3.79553 68.3131 3.97908 68.0707 3.97908C67.4648 5.75348 68.6161 6.67127 68.6161 6.67127Z" fill="#FF9679"/>
<path d="M181.687 8.62803C180.96 8.62803 178.839 9.48464 178.839 9.48464C177.264 10.4636 176.415 11.0143 175.385 11.0755C174.355 11.1978 173.931 12.9722 173.931 12.9722C173.931 12.9722 169.871 13.89 169.629 11.259C169.629 11.259 171.931 8.01617 172.053 7.58787C172.356 6.73126 171.81 5.38517 172.719 3.9167C173.628 2.44824 174.052 0.123168 174.052 0.123168C174.052 0.123168 174.961 -0.182763 175.082 0.735028C175.203 1.65282 174.537 2.87654 174.658 3.30484C174.719 3.36603 174.719 3.42722 174.779 3.54959C174.961 3.79433 175.203 3.97789 175.446 3.97789H175.506C176.537 3.97789 178.294 2.50942 179.021 1.83638C180.051 0.8574 181.505 -0.427507 181.869 0.429098C182.232 1.2857 181.081 1.22452 179.203 3.85552L179.384 4.10026C179.263 4.28382 181.202 3.30484 182.778 2.08112C183.868 1.22452 184.111 2.26468 183.868 2.69298C183.687 3.12129 182.475 3.85552 181.687 4.46738C181.142 4.89568 180.657 5.32398 180.293 5.56873L180.415 5.99703C183.081 5.38517 183.505 4.40619 184.05 4.95687C184.595 5.50754 182.959 6.67008 182.111 6.85364C181.748 6.91482 181.142 7.28194 180.536 7.64906C182.656 7.58787 183.202 6.91482 183.565 7.4655C183.99 8.01617 182.414 8.62803 181.687 8.62803Z" fill="#FF9979"/>
<path d="M174.899 6.67127C175.565 5.44755 174.838 3.79553 174.777 3.55078C174.959 3.79553 175.201 3.97908 175.444 3.97908C176.05 5.75348 174.899 6.67127 174.899 6.67127Z" fill="#FF9679"/>
<path d="M145.877 133.388L138.06 84.4395L122.367 86.2138L106.673 84.4395L98.8564 133.388L95.0996 180.869C95.0996 180.869 96.3115 184.785 104.128 182.092C104.128 182.092 109.945 138.038 110.854 137.121C111.763 136.142 120.973 107.384 120.973 107.384H123.881C123.881 107.384 133.092 136.142 134 137.121C134.909 138.1 140.726 182.092 140.726 182.092C148.543 184.785 149.755 180.869 149.755 180.869L145.877 133.388Z" fill="#0E3944"/>
<path d="M117.456 37.0176C118.426 37.9966 123.334 39.771 125.879 37.0176L127.636 38.7308C127.636 38.7308 125.636 43.4421 122.182 43.6257C118.668 43.8092 116.184 39.4038 116.184 39.4038L117.456 37.0176Z" fill="#0C476B"/>
<path d="M131.271 36.5298C137.088 34.0212 155.933 27.2295 155.933 27.2295C155.933 27.2295 168.597 11.1988 171.202 8.8125C171.202 8.8125 173.99 9.30199 174.838 12.8508C174.838 12.8508 166.658 30.4724 162.235 35.5508C157.811 40.5681 135.331 51.5204 135.331 51.5204L131.271 36.5298Z" fill="#0C476B"/>
<path d="M110.849 36.1612C112.606 35.0599 121.271 40.9337 121.271 40.9337C121.271 40.9337 132.602 34.8763 135.268 36.0389C135.268 36.0389 137.692 39.2817 138.601 47.603C139.57 55.9243 139.631 90.1273 139.631 90.1273C139.631 90.1273 131.996 92.8195 121.695 92.8195C109.94 92.8195 103.638 89.3931 103.638 89.3931C103.638 89.3931 101.578 42.0351 110.849 36.1612Z" fill="#ECFF78"/>
<path d="M117.941 35.2441C117.941 35.2441 119.214 39.2212 117.941 40.7509C117.941 40.7509 119.214 43.5043 121.577 43.6266C124.304 43.749 125.213 40.7509 125.213 40.7509C125.213 40.7509 123.758 36.8962 125.213 35.5501L117.941 35.2441Z" fill="#FF9679"/>
<path d="M114.79 31.3254C114.79 31.3254 112.124 26.1858 112.669 20.7402C113.215 15.2335 121.395 14.0098 126.909 16.7019C126.909 16.7019 125.273 15.1111 125.939 14.6216C126.606 14.1933 127.696 17.0691 127.696 17.0691C127.696 17.0691 129.454 16.5184 129.696 17.0691C129.938 17.6197 127.939 17.9257 127.939 17.9257C127.939 17.9257 131.514 19.9448 128.181 30.53L114.79 31.3254Z" fill="#8B383E"/>
<path d="M114.366 28.0831C114.366 28.0831 112.427 26.1251 112.184 28.389C111.881 31.0812 114.305 32.1825 114.79 31.3259C115.275 30.4693 114.366 28.0831 114.366 28.0831Z" fill="#FF9979"/>
<path d="M128.184 28.2041C128.184 28.2041 130.123 26.2462 130.365 28.5101C130.668 31.2023 128.244 32.3036 127.76 31.447C127.275 30.5904 128.184 28.2041 128.184 28.2041Z" fill="#FF9979"/>
<path d="M121.089 37.8102C116.727 37.8102 114.242 34.9344 114.242 26.3072C114.242 21.8406 116.484 19.1484 121.392 19.1484C126.3 19.1484 128.36 21.9018 128.36 26.3072C128.3 35.5463 125.573 37.8102 121.089 37.8102Z" fill="#FF9979"/>
<path d="M126.91 29.3656C126.971 29.7939 126.607 30.2222 126.062 30.3446C125.517 30.467 125.032 30.161 124.911 29.7327C124.85 29.3044 125.214 28.8761 125.759 28.7538C126.305 28.6314 126.789 28.9373 126.91 29.3656Z" fill="#DB614D"/>
<path d="M117.88 29.6133C117.88 30.0416 117.396 30.4087 116.85 30.3475C116.305 30.2863 115.881 29.9192 115.881 29.4909C115.881 29.0626 116.366 28.6955 116.911 28.7567C117.517 28.7567 117.941 29.185 117.88 29.6133Z" fill="#DB614D"/>
<path d="M124.908 24.9013C124.847 24.9013 124.787 24.9013 124.726 24.8401C124.12 24.2282 123.09 24.2282 123.029 24.2282C122.908 24.2282 122.787 24.167 122.787 24.0447C122.787 23.9223 122.848 23.7999 122.969 23.7999C123.029 23.7999 124.241 23.7387 124.968 24.5341C125.029 24.5953 125.029 24.7789 124.968 24.8401L124.908 24.9013Z" fill="#8B383E"/>
<path d="M116.669 24.9013C116.608 24.9013 116.547 24.9013 116.547 24.8401C116.487 24.7789 116.487 24.5953 116.547 24.5341C117.275 23.7387 118.486 23.7999 118.547 23.7999C118.668 23.7999 118.789 23.9223 118.729 24.0447C118.729 24.167 118.608 24.2894 118.486 24.2282C118.486 24.2282 117.396 24.2282 116.79 24.8401C116.79 24.8401 116.729 24.9013 116.669 24.9013Z" fill="#8B383E"/>
<path d="M124.485 27.227C124.485 27.7777 124.243 28.206 123.94 28.206C123.637 28.206 123.395 27.7777 123.395 27.227C123.395 26.6763 123.637 26.248 123.94 26.248C124.243 26.248 124.485 26.6763 124.485 27.227Z" fill="#1A4850"/>
<path d="M118.665 27.227C118.665 27.7777 118.423 28.206 118.12 28.206C117.817 28.206 117.574 27.7777 117.574 27.227C117.574 26.6763 117.817 26.248 118.12 26.248C118.423 26.248 118.665 26.6763 118.665 27.227Z" fill="#1A4850"/>
<path d="M118.666 33.0989C118.666 33.0989 122.544 33.5884 124.483 32.6094C124.483 32.6094 123.392 35.2404 121.272 34.9956C119.151 34.8121 118.666 33.0989 118.666 33.0989Z" fill="#1A4850"/>
<path d="M127.878 29.1843C127.878 29.1843 127.757 24.4118 125.879 20.6795C125.879 20.6795 122.607 22.2091 121.88 21.842C121.153 21.4749 122.546 20.6795 122.546 20.6795C122.546 20.6795 117.153 22.4539 116.85 22.0868C116.548 21.7196 118.608 20.6795 118.608 20.6795L115.275 21.842C115.275 21.842 114.245 26.1862 114.669 29.1843C114.669 29.1843 113.215 26.6757 113.033 24.9625C112.851 23.2493 113.639 18.2932 118.668 17.9261C123.698 17.559 126.545 18.7215 127.818 21.0466C129.09 23.4329 128.969 26.3086 127.878 29.1843Z" fill="#8B383E"/>
<path d="M121.819 31.6929C121.395 31.6929 120.971 31.5705 120.85 31.5705L120.971 31.1422C121.456 31.2646 122.122 31.3257 122.304 31.1422C122.364 31.081 122.364 30.8974 122.243 30.7139C121.637 29.3678 121.456 25.9414 121.456 25.7578H121.94C121.94 25.819 122.061 29.2454 122.667 30.5303C122.849 30.8974 122.849 31.2034 122.667 31.4481C122.486 31.6317 122.183 31.6929 121.819 31.6929Z" fill="#DB614D"/>
<path d="M126.666 38.306C126.666 38.306 134.543 63.0864 135.331 83.2166C135.331 83.2166 138.179 84.012 141.39 79.6066C144.602 75.2012 142.663 40.2028 136.543 34.3901C136.543 34.3901 133.755 33.717 126.666 38.306Z" fill="#105E99"/>
<path d="M127.941 42.6483C127.941 42.6483 129.335 39.3443 128.729 37.0804C128.123 34.8165 125.881 37.0804 125.881 37.0804C125.881 37.0804 126.79 40.7516 127.941 42.6483Z" fill="#0C476B"/>
<path d="M112.064 36.5284C106.247 34.0198 87.403 27.2281 87.403 27.2281C87.403 27.2281 74.6784 10.7691 72.1335 8.38281C72.1335 8.38281 68.922 10.2184 68.7402 14.0119C68.7402 14.0119 76.7385 30.5322 81.1618 35.6106C85.5852 40.6891 108.065 51.5802 108.065 51.5802L112.064 36.5284Z" fill="#0C476B"/>
<path d="M116.669 38.306C116.669 38.306 108.792 63.0864 108.004 83.2166C108.004 83.2166 105.156 84.012 101.945 79.6066C98.7332 75.2012 100.672 40.2028 106.792 34.3901C106.792 34.3901 109.579 33.717 116.669 38.306Z" fill="#105E99"/>
<path d="M115.395 42.6483C115.395 42.6483 114.002 39.3443 114.608 37.0804C115.214 34.8165 117.456 37.0804 117.456 37.0804C117.456 37.0804 116.547 40.7516 115.395 42.6483Z" fill="#0C476B"/>
<path d="M156.597 193.592H140.904C139.813 187.29 141.57 180.987 141.57 180.987L148.72 179.764C149.387 183.741 150.175 185.332 151.265 186.127C152.053 186.739 153.022 186.922 154.174 187.29C155.507 187.779 156.234 188.636 156.597 189.553C157.325 191.45 156.597 193.592 156.597 193.592Z" fill="#662C33"/>
<path d="M156.656 189.616C152.778 190.105 144.295 190.962 144.78 188.698C145.204 186.801 148.779 186.312 151.263 186.189C152.051 186.801 153.02 186.985 154.172 187.352C155.565 187.78 156.292 188.637 156.656 189.616Z" fill="#8B383E"/>
<path d="M104.064 193.592H88.3708C88.3708 193.592 87.886 192.123 88.1284 190.532C88.3102 189.248 88.9767 187.901 90.7945 187.29C92.1276 186.8 93.2182 186.617 94.0665 185.821C94.9754 184.965 95.7026 183.312 96.2479 179.764L103.398 180.987C103.459 180.987 105.155 187.29 104.064 193.592Z" fill="#662C33"/>
<path d="M88.1309 190.534C88.3126 189.249 88.9792 187.903 90.797 187.291C92.13 186.801 93.2207 186.618 94.069 185.822C96.0686 186.434 98.8559 187.597 99.7042 189.31C100.855 191.696 91.7059 191.329 88.1309 190.534Z" fill="#8B383E"/>
<path d="M216.708 192.491C216.708 193.164 216.647 193.654 216.647 193.654H197.561C197.561 193.287 197.561 192.92 197.561 192.491C197.803 187.474 199.378 183.069 199.378 183.069L204.165 180.988C204.589 183.497 205.619 185.027 206.952 186.067C207.316 186.373 207.68 186.556 208.043 186.801C208.225 186.923 208.407 186.985 208.589 187.046C209.013 187.229 209.376 187.352 209.8 187.474C211.497 187.963 213.194 188.086 214.345 188.269C216.405 188.637 216.708 191.023 216.708 192.491Z" fill="#164353"/>
<path d="M216.708 192.49C216.708 193.163 216.647 193.653 216.647 193.653H197.561C197.561 193.286 197.561 192.919 197.561 192.49H216.708Z" fill="#225866"/>
<path d="M208.043 186.801L205.377 187.657L204.832 186.678L206.953 186.066C207.316 186.372 207.68 186.617 208.043 186.801Z" fill="#225866"/>
<path d="M209.803 187.536L208.046 188.759L206.955 188.331L208.591 187.107C208.955 187.23 209.379 187.413 209.803 187.536Z" fill="#225866"/>
<path d="M143.875 192.492C143.814 193.165 143.632 193.655 143.632 193.655H130.908C130.726 193.288 130.605 192.92 130.544 192.492C129.272 186.374 137.755 178.848 137.755 178.848L140.421 182.458C140.421 182.458 140.118 188.209 142.36 189.433C143.814 190.167 143.996 191.513 143.875 192.492Z" fill="#164353"/>
<path d="M130.605 192.492H143.875C143.815 193.165 143.633 193.655 143.633 193.655H130.908C130.848 193.226 130.727 192.859 130.605 192.492Z" fill="#225866"/>
<path d="M141.875 188.942C141.875 188.942 136.543 187.718 134.059 189.309V188.452C134.059 188.452 138.603 186.249 141.875 188.942Z" fill="#225866"/>
<path d="M140.784 187.599C140.784 187.599 137.391 186.008 134.059 187.599L134.422 186.681C134.483 186.681 138.421 185.151 140.784 187.599Z" fill="#225866"/>
<path d="M210.952 137.915C210.952 143.054 206.407 185.089 206.407 185.089C201.863 185.518 198.227 184.6 198.227 184.6C196.955 163.307 196.834 144.951 196.834 144.951L175.081 128.492L175.02 128.431C175.02 128.431 174.96 128.798 174.778 129.471C173.687 134.305 169.143 154.496 167.264 159.146C165.083 164.408 141.512 186.558 141.512 186.558C137.149 185.946 133.393 182.764 133.393 182.764C141.876 168.569 153.449 154.313 153.449 154.313C154.358 149.173 155.024 137.792 155.388 129.288C155.388 129.165 155.388 129.043 155.388 128.92C155.63 123.169 155.751 118.825 155.751 118.825L151.752 110.565L177.08 101.203L182.776 108.545C182.776 108.545 184.049 109.769 186.109 111.727C186.23 111.788 186.29 111.911 186.412 111.972C194.046 119.314 210.952 135.651 210.952 137.915Z" fill="#5553CB"/>
<path d="M155.449 129.407C155.449 129.284 155.449 129.162 155.449 129.04C160.781 126.103 159.873 121.452 159.873 121.391L160.175 121.33C160.236 121.391 161.206 126.409 155.449 129.407Z" fill="#60A0BF"/>
<path d="M174.78 125.308C174.962 126.349 175.083 127.45 175.144 128.612L175.083 128.551C175.083 128.551 175.022 128.918 174.841 129.591C174.598 121.576 171.326 116.865 171.326 116.804L171.629 116.62C171.69 116.681 173.75 119.679 174.719 124.88C178.597 121.454 174.78 114.356 174.78 114.295L175.083 114.111C175.083 114.234 179.082 121.698 174.78 125.308Z" fill="#60A0BF"/>
<path d="M186.473 112.032C186.291 112.093 186.11 112.154 185.928 112.154C184.049 112.154 180.959 109.523 180.777 109.401L181.02 109.156C182.05 110.013 184.898 112.093 186.231 111.787C186.291 111.848 186.352 111.971 186.473 112.032Z" fill="#60A0BF"/>
<path d="M153.629 66.6946C153.629 66.6946 161.324 65.4709 165.202 67.9183C169.08 70.427 174.109 76.8515 174.109 76.8515C174.109 76.8515 168.111 77.6469 167.444 81.7464C167.444 81.8076 163.081 71.3447 153.629 66.6946Z" fill="#5F78BA"/>
<path d="M142.058 70.7946C138.786 72.569 133.333 79.2382 133.09 83.3377C132.848 87.3148 135.756 91.0472 137.756 94.1676C143.937 103.957 150.42 112.585 153.207 124.026C153.207 124.088 167.326 129.778 183.868 109.648C183.868 109.648 174.536 96.921 171.264 86.0911C169.931 81.6857 168.598 77.0356 166.053 73.1196C163.266 68.8366 158.479 66.328 153.571 66.7563C149.451 67.0622 145.27 69.0202 142.058 70.7946Z" fill="#98C1FF"/>
<path d="M140.725 66.6951C140.725 66.6951 142.785 70.3051 141.815 72.2631C141.815 72.2631 148.965 74.7717 148.965 70.7334C148.965 70.7334 147.632 67.7353 148.117 65.7773L140.725 66.6951Z" fill="#FF9679"/>
<path d="M156.597 91.291C156.597 91.291 152.598 92.4535 151.628 93.8608C150.598 95.2681 149.75 98.4498 149.75 98.4498H156.597L157.869 96.0635L159.384 92.8819L156.597 91.291Z" fill="#FF9679"/>
<path d="M149.997 62.6531C149.997 62.6531 152.784 61.4906 150.966 52.9857C149.754 47.3566 148.058 46.5612 146.906 46.5C146.906 46.5 145.573 44.4197 140.847 45.3987C137.636 46.0717 135.03 48.0909 133.879 51.762C132.667 55.6167 135.091 63.8157 138.181 64.6111L149.997 62.6531Z" fill="#164353"/>
<path d="M150.664 56.9049C150.664 56.9049 152.421 54.4575 153.088 56.8438C153.875 59.6583 151.452 61.2491 150.785 60.4537C150.179 59.6583 150.664 56.9049 150.664 56.9049Z" fill="#FF9979"/>
<path d="M135.938 59.5348C135.938 59.5348 133.514 57.7604 133.635 60.269C133.817 63.206 136.604 63.9402 136.907 62.9C137.271 61.9211 135.938 59.5348 135.938 59.5348Z" fill="#FF9979"/>
<path d="M145.211 68.5305C149.876 67.7351 151.997 64.2475 150.482 55.0084C149.694 50.2359 146.847 47.7272 141.575 48.5838C136.364 49.4405 134.607 52.7445 135.394 57.517C137.091 67.4292 140.363 69.3259 145.211 68.5305Z" fill="#FF9979"/>
<path d="M137.512 60.5148C137.512 61.0043 137.996 61.4326 138.602 61.4326C139.208 61.4326 139.693 61.0655 139.693 60.576C139.693 60.0865 139.208 59.6582 138.602 59.6582C137.996 59.6582 137.512 60.0253 137.512 60.5148Z" fill="#DB614D"/>
<path d="M147.149 59.2282C147.27 59.7177 147.816 59.9625 148.422 59.8401C149.028 59.7177 149.391 59.2282 149.27 58.7387C149.149 58.2493 148.603 58.0045 147.997 58.1269C147.452 58.2493 147.089 58.7388 147.149 59.2282Z" fill="#DB614D"/>
<path d="M138.849 55.3754C138.788 55.3754 138.727 55.3754 138.727 55.3142C138.606 55.253 138.606 55.0694 138.667 55.0082C139.333 54.0293 140.606 53.8457 140.666 53.8457C140.788 53.8457 140.909 53.9069 140.909 54.0293C140.909 54.1516 140.848 54.274 140.727 54.274C140.727 54.274 139.576 54.4576 139.03 55.253C138.97 55.3754 138.909 55.3754 138.849 55.3754Z" fill="#1A4850"/>
<path d="M147.635 53.9045C147.574 53.9045 147.513 53.9045 147.513 53.8434C146.786 53.2927 145.635 53.4762 145.635 53.4762C145.514 53.4762 145.393 53.4151 145.332 53.2927C145.332 53.1703 145.393 53.0479 145.514 52.9867C145.574 52.9867 146.847 52.742 147.816 53.4151C147.938 53.4762 147.938 53.6598 147.877 53.721C147.756 53.9045 147.695 53.9045 147.635 53.9045Z" fill="#1A4850"/>
<path d="M139.698 57.8207C139.819 58.4326 140.122 58.8609 140.425 58.7997C140.728 58.7385 140.909 58.249 140.849 57.6371C140.728 57.0253 140.425 56.597 140.122 56.6582C139.758 56.7193 139.576 57.27 139.698 57.8207Z" fill="#1A4850"/>
<path d="M145.938 56.7816C146.059 57.3935 146.362 57.8218 146.665 57.7606C146.968 57.6994 147.15 57.2099 147.089 56.5981C146.968 55.9862 146.665 55.5579 146.362 55.6191C145.998 55.6803 145.817 56.231 145.938 56.7816Z" fill="#1A4850"/>
<path d="M147.692 62.1035C147.692 62.1035 143.633 63.2049 141.391 62.7766C141.391 62.7766 142.966 64.7345 145.147 64.1838C147.389 63.572 147.692 62.1035 147.692 62.1035Z" fill="#1A4850"/>
<path d="M147.876 50.7266C147.876 50.7266 142.604 54.5813 136 54.8873L136.181 60.8223C136.181 60.8223 130.001 49.3193 142.241 47.3002C154.42 45.2811 150.906 58.0689 150.906 58.0689C150.906 58.0689 150.481 52.5622 147.876 50.7266Z" fill="#0E3944"/>
<path d="M143.573 60.5147L143.512 60.0252C143.512 60.0252 144.239 59.964 144.421 59.5357C144.482 59.3521 144.179 58.8015 143.936 58.2508C143.573 57.5165 143.088 56.6599 142.906 55.681L143.391 55.5586C143.573 56.4764 143.997 57.333 144.361 58.006C144.724 58.7403 145.027 59.2909 144.845 59.7192C144.603 60.4535 143.573 60.5147 143.573 60.5147Z" fill="#DB614D"/>
<path d="M150.723 50.7241C141.876 46.8082 133.514 54.8847 133.514 54.8847C133.514 54.8847 132.545 48.3378 134.241 46.8082C134.665 46.3799 135.15 46.0739 135.635 45.768C139.573 43.2594 144.784 43.3206 147.148 44.1772C147.632 44.3607 147.996 44.5443 148.238 44.789C149.632 46.2575 150.723 50.7241 150.723 50.7241Z" fill="#CE364C"/>
<path d="M149.631 49.2556C149.631 49.2556 142.178 47.7872 135.27 52.4373C135.27 52.4373 134.846 48.2155 135.634 45.768C139.572 43.2594 144.783 43.3206 147.147 44.1772C148.54 45.768 149.631 49.2556 149.631 49.2556Z" fill="#98C1FF"/>
<path d="M134.24 54.1512C134.24 54.1512 135.392 49.0727 137.028 47.6654C139.694 45.2792 147.086 44.4838 151.025 45.891C154.963 47.2983 151.025 51.6425 151.025 51.6425C151.025 51.6425 144.783 47.1148 134.24 54.1512Z" fill="#A02E44"/>
<path d="M145.753 87.7422C145.753 87.7422 148.783 92.5147 153.994 95.3293C153.994 95.3293 160.477 89.639 168.9 90.1284C168.9 90.1284 161.932 102.794 155.933 104.201C152.782 104.935 141.391 97.3484 141.391 97.3484C141.391 97.3484 143.633 89.333 145.753 87.7422Z" fill="#FF9979"/>
<path d="M134.545 79.1166C137.332 74.5277 143.755 81.3193 145.937 86.153C148.118 90.9867 149.693 92.0269 149.693 92.0269C149.693 92.0269 143.27 94.7191 143.331 99.614C143.331 99.614 128.425 89.1512 134.545 79.1166Z" fill="#5F78BA"/>
<path d="M153.932 93.2469C153.932 93.2469 157.87 89.3922 170.716 84.3137L169.08 79.0517C170.534 77.0937 173.261 77.0938 173.261 77.0938C173.261 77.0938 179.866 86.5164 178.714 89.2698C177.987 91.0442 164.232 92.8798 153.932 93.2469Z" fill="#FF9679"/>
<path d="M168.053 85.6023C168.053 85.6023 168.174 85.0516 168.659 84.3785C169.143 83.7055 169.022 82.4818 169.204 82.1147C169.386 81.7475 170.416 80.1567 171.082 79.8508C171.749 79.5448 172.658 79.0554 172.84 79.912C173.021 80.7686 171.628 80.5238 171.022 81.7475C171.022 81.7475 172.415 81.3192 173.446 81.564C174.536 81.8087 174.839 82.8489 173.506 82.7877C172.415 82.7877 171.082 83.5219 171.082 83.5219C171.082 83.5219 172.476 83.7055 172.234 84.3785C171.81 85.2351 170.113 84.6845 168.053 85.6023Z" fill="#FF9979"/>
<path d="M72.9195 103.282C74.0707 106.28 78.797 111.359 78.797 111.359C78.797 111.359 90.3097 104.384 95.5813 107.321C100.914 110.257 105.094 112.032 108.548 110.747C112.002 109.462 97.2173 82.3566 97.2173 82.3566L78.0699 74.9531C78.0699 74.9531 77.6457 79.848 75.4644 80.7046C73.283 81.5612 70.9199 89.6378 71.1017 91.1674C71.2834 92.7583 72.9195 103.282 72.9195 103.282Z" fill="#3E6575"/>
<path d="M94.4922 111.479C94.4922 111.479 89.5841 121.269 79.3439 133.751C79.3439 133.751 78.3138 148.619 51.3498 172.054L48.502 169.79C48.502 169.79 64.5592 144.397 67.7706 136.627C70.982 128.856 66.0134 121.697 80.7375 102.057L94.4922 111.479Z" fill="#FF9679"/>
<path d="M78.7402 94.2266C74.4987 102.425 73.0445 112.949 73.0445 112.949L71.1055 117.906C71.1055 117.906 77.9525 121.638 85.8902 122.984L89.0411 114.479L78.7402 94.2266Z" fill="#662C33"/>
<path d="M100.917 110.746C100.917 110.746 103.038 121.515 102.674 137.668C102.674 137.668 110.975 150.028 104.128 185.21H100.553C100.553 185.21 97.6449 155.228 95.4029 147.152C93.161 139.014 84.8597 136.567 84.4355 111.847L100.917 110.746Z" fill="#FF9979"/>
<path d="M103.037 122.248C103.037 122.248 96.3111 123.472 84.3742 122.921L84.1925 121.575L84.1319 121.208L82.92 112.458C82.92 112.458 81.7687 111.051 80.6175 108.726C80.4963 108.481 80.3145 108.175 80.1933 107.869C78.6179 104.443 77.1637 99.4254 78.7391 94.2246L81.2234 94.347H81.587L90.0094 94.7141H90.373L93.1603 94.8365H93.5844L95.4022 94.8977C95.4022 94.8977 104.491 103.158 102.855 118.454L102.976 120.596V120.963L103.037 122.248Z" fill="#8B383E"/>
<path d="M81.5876 94.3483C81.3453 95.0213 79.7698 100.222 80.5575 108.727C80.4364 108.482 80.2546 108.176 80.1334 107.87C79.5275 100.1 80.9211 95.2661 81.2241 94.2871C81.2847 94.1647 81.2847 94.1035 81.2847 94.1035L81.5876 94.2259C81.6482 94.2871 81.6482 94.2871 81.5876 94.3483Z" fill="#662C33"/>
<path d="M102.979 121.023C100.616 121.635 96.5564 121.819 92.6784 121.819C89.2246 121.819 85.9526 121.697 84.1954 121.574L84.1348 121.207C87.1644 121.329 95.1021 121.697 100.253 121.085L99.9496 115.639C100.01 109.276 98.1318 103.83 96.2534 100.037C91.5877 99.18 90.3153 95.6924 90.0123 94.7135C89.9517 94.5299 89.9517 94.4687 89.9517 94.4687L90.2547 94.4075C90.2547 94.4075 90.2547 94.5299 90.3153 94.7135C90.6182 95.7536 91.8907 98.7517 96.011 99.6083C94.7386 97.1609 93.5873 95.4477 93.1026 94.8358C92.9814 94.6523 92.8602 94.5299 92.8602 94.5299L93.1026 94.2852C93.1026 94.2852 93.2843 94.4687 93.5267 94.8358C95.1021 96.9773 100.374 105.054 100.192 115.578L100.495 121.023C101.404 120.901 102.192 120.779 102.858 120.595L102.979 121.023Z" fill="#662C33"/>
<path d="M85.7661 57.3924C83.0999 55.9239 63.7707 63.5722 63.7707 63.5722C63.7707 63.5722 60.9228 68.7118 62.68 70.7309C64.4372 72.7501 70.7995 71.8323 72.6779 70.7309C74.6169 69.6296 79.7067 68.773 79.7067 68.773L85.7661 57.3924Z" fill="#5553CB"/>
<path d="M102.795 41.1174C102.795 41.1174 106.794 42.647 108.248 47.2972C109.702 51.9473 105.34 63.695 106.854 69.0794C108.369 74.4638 108.127 84.6818 103.401 86.8234C98.6743 88.9649 89.0399 85.1102 86.9798 79.2363C84.9196 73.3624 85.8285 51.0295 89.7671 43.4424C93.8268 35.9165 101.886 39.7101 102.795 41.1174Z" fill="#F24052"/>
<path d="M98.2504 61.1271C99.2805 62.2896 102.007 60.2093 102.007 60.2093C102.007 60.2093 101.947 70.305 99.0381 71.1004C96.1297 71.8958 88.6767 63.1462 88.9797 60.76C89.2826 58.4349 95.8873 58.6184 98.2504 61.1271Z" fill="#5553CB"/>
<path d="M87.0404 58.6172C87.0404 58.6172 90.0095 61.1258 95.0993 62.3495C100.25 63.5733 103.037 61.1258 105.643 64.4299C109.581 69.4471 103.158 78.6862 99.8256 83.4587C98.5531 85.2331 95.887 90.1892 95.4023 94.9617C95.4023 94.9617 86.4951 97.5927 78.7998 94.1663L78.2544 83.1528C78.1938 83.214 73.3464 68.3458 87.0404 58.6172Z" fill="#0E3944"/>
<path d="M96.252 69.3239C96.252 69.3239 100.312 59.5341 101.524 58.9222C102.675 58.3104 105.704 59.7789 106.31 61.1249C106.916 62.471 106.31 65.408 106.31 65.408C106.31 65.408 103.038 61.7368 96.252 69.3239Z" fill="#5553CB"/>
<path d="M115.702 110.744C113.824 114.599 109.34 115.639 109.34 115.639C109.34 115.639 108.977 115.089 108.431 114.171C108.371 114.048 108.31 113.987 108.25 113.865C104.675 107.991 93.7677 89.3293 93.9495 79.5395C94.1919 67.9141 101.705 61.5508 101.705 61.5508C105.523 62.4686 106.735 63.5087 106.735 63.5087C106.735 63.5087 108.007 70.1168 106.856 78.071C105.705 86.0252 103.523 88.1055 104.614 88.7174C105.705 89.3293 104.614 90.4918 104.614 90.4918C104.614 90.4918 110.916 99.425 112.127 102.178C112.915 104.014 114.188 107.073 115.036 108.97C115.097 109.092 115.157 109.215 115.218 109.337C115.46 110.194 115.702 110.744 115.702 110.744Z" fill="#60A0BF"/>
<path d="M104.736 63.5098C104.736 63.5098 100.192 66.875 102.858 72.0758L115.401 85.2308C108.493 92.6343 107.827 95.6936 102.858 99.1201L104.736 102.057C104.736 102.057 122.187 88.5349 122.248 85.2308C122.187 83.8235 111.523 66.7526 104.736 63.5098Z" fill="#FF9979"/>
<path d="M102.553 99.1233C102.553 99.1233 100.13 99.368 98.6754 99.7963C97.1606 100.163 95.161 100.531 95.1004 100.898C95.0398 101.204 98.433 100.898 98.433 100.898C98.433 100.898 95.6458 102.06 95.5852 102.489C95.5246 102.917 99.0996 102.183 99.0996 102.183C99.0996 102.183 96.8576 103.59 96.9788 103.957C97.1 104.324 99.8873 103.406 99.8873 103.406C99.8873 103.406 99.3419 104.752 98.8572 105.364C98.8572 105.364 99.4025 105.67 100.493 104.446C101.584 103.223 103.341 103.59 104.735 102.55C106.068 101.326 103.826 98.9397 102.553 99.1233Z" fill="#FF9979"/>
<path d="M89.709 60.2703C89.709 60.2703 86.2552 62.5342 84.0738 67.9797C81.8925 73.4253 75.0454 83.6434 73.4094 86.2744C71.7734 88.9054 72.9247 103.284 72.9247 103.284C72.9247 103.284 70.9251 94.5957 70.0162 91.1692C69.1073 87.7428 72.9247 79.3603 73.47 78.932C74.0153 78.5037 76.9844 79.2991 76.3785 75.8727C75.7726 72.4463 83.6497 57.7616 85.7098 57.3945C85.7704 57.3945 89.1031 58.0064 89.709 60.2703Z" fill="#60A0BF"/>
<path d="M79.0427 61.003C78.9821 61.1254 78.9215 61.2478 78.8609 61.3701C78.0732 62.5327 76.619 63.3893 76.619 63.3893C76.619 63.3893 74.0135 67.1216 73.9529 67.5499C73.9529 67.9171 69.4084 71.2211 67.3482 71.1599C67.0452 71.1599 66.8635 71.0987 66.6817 70.9152C65.4698 69.7526 70.7414 60.2076 71.8927 58.1273C71.9533 58.0049 72.0139 57.8825 72.0745 57.8214C72.0745 57.7602 72.1351 57.7602 72.1351 57.7602C72.1351 57.7602 71.2262 54.2726 75.1041 54.9456C78.3156 55.4963 78.9821 58.0661 79.2851 59.7793C79.3457 60.1464 79.2851 60.5747 79.0427 61.003Z" fill="#60A0BF"/>
<path d="M65.5302 64.6102C68.1963 61.0614 77.5883 54.2086 82.4963 52.1895L83.7082 54.5145C83.7082 54.5145 74.1951 62.9582 71.9531 66.5682C69.7112 70.1782 66.9239 71.7078 64.3184 70.4841C61.6523 69.3215 64.9849 65.3445 65.5302 64.6102Z" fill="#FF9979"/>
<path d="M78.1347 60.2699L77.6499 60.8817L77.4076 61.1877L76.5593 62.1666C76.5593 62.1666 74.4385 64.7365 74.5597 65.7766C74.6203 66.5109 70.5605 69.8149 67.4097 71.2222C66.1372 71.7729 64.9859 72.0176 64.3194 71.6505C62.0169 70.3044 62.5622 66.3273 63.8347 63.6351C64.9859 61.2489 69.9546 58.2507 71.227 57.4553C71.4088 57.3329 71.4694 57.2718 71.53 57.2718L72.0148 55.375C72.0148 55.375 73.772 54.3348 75.105 54.9467C75.105 54.9467 72.0754 55.0691 72.5601 56.2928C73.1054 57.3941 77.2864 60.2087 78.1347 60.2699Z" fill="#5553CB"/>
<path d="M89.1013 50.4777C86.0717 51.7626 86.4958 54.516 83.7085 54.516C81.9513 54.516 81.7695 52.4969 81.7695 52.4969C82.5572 50.7836 83.042 47.9079 83.1632 46.5006C83.2844 45.0933 83.7085 45.644 83.7085 45.644C83.7085 45.5216 83.7085 45.3993 83.7085 45.2769C83.6479 44.3591 83.5267 43.6861 84.1327 44.0532C84.7992 44.4815 85.0416 47.1125 85.0416 47.1125C85.5869 43.2578 84.7386 42.7071 85.4051 43.013C86.314 43.5025 86.314 46.8677 86.314 46.9901C87.0411 44.7262 86.8594 43.5025 87.3441 43.992C87.8289 44.4815 87.1017 48.5809 86.7988 50.1106C86.7382 50.4777 86.6776 50.6613 86.6776 50.6613C89.1013 49.4987 89.1013 50.4777 89.1013 50.4777Z" fill="#FF9979"/>
<path d="M86.7984 50.1719C86.7379 50.539 86.6773 50.7226 86.6773 50.7226C86.6773 50.7226 85.5866 50.6002 84.7383 51.8239C84.7383 51.8239 84.9807 50.1719 86.7984 50.1719Z" fill="#FF9679"/>
<path d="M83.8927 48.3978C83.8927 48.0919 84.0745 46.1951 83.7109 45.6445C83.7109 45.5221 83.7109 45.3997 83.7109 45.2773C84.3775 45.4609 83.9533 48.0307 83.8927 48.3978Z" fill="#FF9679"/>
<path d="M85.7656 64.6137C85.7656 64.6137 87.8258 58.9846 88.4923 57.6997C89.1588 56.4148 92.5521 56.6595 95.1576 57.149C97.7631 57.6385 98.2478 61.1261 98.2478 61.1261C98.2478 61.1261 90.3707 57.3938 85.7656 64.6137Z" fill="#5553CB"/>
<path d="M99.0373 53.5357C99.0373 53.5357 96.553 58.1247 96.6135 63.2643C96.6135 63.2643 92.6144 66.0177 91.1602 62.5913C91.1602 62.5913 92.675 58.0635 91.9479 52.0061C91.4631 47.8454 99.0373 53.5357 99.0373 53.5357Z" fill="#FF9679"/>
<path d="M91.1588 47.1727C91.1588 47.1727 90.4317 44.5417 89.0986 46.3773C87.5838 48.5188 89.0986 50.5991 89.9469 50.1096C90.7346 49.6201 91.1588 47.1727 91.1588 47.1727Z" fill="#FF9979"/>
<path d="M102.796 53.9031C102.796 53.9031 105.402 53.1688 104.493 55.2492C103.463 57.6966 100.918 57.3907 100.918 56.4729C100.918 55.5551 102.796 53.9031 102.796 53.9031Z" fill="#FF9979"/>
<path d="M92.251 58.6764C88.5549 56.5961 87.8277 52.9249 91.8875 45.5826C94.0082 41.7891 97.2197 40.5653 101.34 42.8904C105.521 45.2767 105.945 48.5807 103.824 52.3743C99.4616 60.2673 96.0684 60.8179 92.251 58.6764Z" fill="#FF9979"/>
<path d="M101.157 54.2699C101.036 54.6982 100.491 54.8817 99.9452 54.6982C99.4604 54.5146 99.1575 54.0251 99.2787 53.5968C99.3999 53.1685 99.9452 52.985 100.491 53.1685C101.036 53.4133 101.339 53.8416 101.157 54.2699Z" fill="#DB614D"/>
<path d="M93.4018 50.1676C93.1595 50.5348 92.6141 50.596 92.1294 50.29C91.6446 49.9841 91.5235 49.4334 91.7052 49.0663C91.9476 48.6992 92.4929 48.638 92.9777 48.9439C93.4624 49.2499 93.6442 49.8005 93.4018 50.1676Z" fill="#DB614D"/>
<path d="M101.699 49.56C101.578 49.56 101.517 49.4988 101.517 49.3764C101.336 48.5198 100.366 48.0304 100.366 48.0304C100.245 47.9692 100.245 47.8468 100.305 47.7244C100.366 47.6021 100.487 47.6021 100.608 47.6632C100.669 47.6632 101.699 48.2751 101.941 49.2541C101.941 49.3764 101.881 49.4988 101.699 49.56Z" fill="#1A4850"/>
<path d="M96.6113 45.8883C96.5507 45.8883 96.5507 45.8883 96.4901 45.8271C96.4901 45.8271 95.5812 45.2764 94.7935 45.5211C94.6723 45.5823 94.5511 45.5211 94.5511 45.3988C94.4905 45.2764 94.5511 45.154 94.6723 45.154C95.6418 44.8481 96.6719 45.46 96.7325 45.46C96.8537 45.5211 96.8537 45.6435 96.7931 45.7659C96.7325 45.8271 96.6719 45.8883 96.6113 45.8883Z" fill="#1A4850"/>
<path d="M100.186 51.3314C99.9434 51.8205 99.5195 52.0651 99.2773 51.8816C99.0352 51.7594 99.0352 51.2702 99.2773 50.7811C99.5195 50.292 99.9434 50.0474 100.186 50.2308C100.428 50.3531 100.428 50.8422 100.186 51.3314Z" fill="#1A4850"/>
<path d="M94.9766 48.5189C94.7344 49.008 94.3106 49.2526 94.0684 49.0691C93.8262 48.9469 93.8262 48.4577 94.0684 47.9686C94.3106 47.4795 94.7344 47.2349 94.9766 47.4183C95.2188 47.5406 95.2188 48.0297 94.9766 48.5189Z" fill="#1A4850"/>
<path d="M93.1567 53.293C93.1567 53.293 95.2775 54.945 96.8529 55.0062C96.8529 55.0062 95.2169 56.3523 94.0656 55.4957C92.8537 54.5779 93.1567 53.293 93.1567 53.293Z" fill="#1A4850"/>
<path d="M99.0352 50.3552C99.0352 50.3552 100.005 49.3762 100.429 49.7433C100.853 50.0492 100.611 51.273 100.611 51.273H101.459L100.732 50.967C100.732 50.967 100.974 49.7433 100.55 49.4986C99.9441 49.1926 99.0352 50.3552 99.0352 50.3552Z" fill="#1A4850"/>
<path d="M95.3395 48.457C95.3395 48.457 95.6424 47.1109 95.1577 46.9273C94.6729 46.7437 93.764 47.5392 93.764 47.5392L93.2793 46.8049L93.8852 47.2944C93.8852 47.2944 94.7941 46.4378 95.2183 46.7438C95.9454 47.0497 95.3395 48.457 95.3395 48.457Z" fill="#1A4850"/>
<path d="M102.365 44.4805C102.365 44.4805 101.032 42.5837 99.2146 44.1133C97.3968 45.5818 93.2159 47.9681 91.2163 47.1726C89.1561 46.3772 95.7002 37.6276 101.335 40.1974C106.971 42.7672 106.486 51.1497 104.123 53.7807C101.76 56.4117 102.911 53.9643 102.911 53.9643C102.911 53.9643 103.093 50.1708 103.88 47.7233C104.547 45.1535 102.365 44.4805 102.365 44.4805Z" fill="#F24052"/>
<path d="M96.0666 52.4321C95.9455 52.4321 95.8849 52.4321 95.7637 52.371L95.8849 51.9427C96.2484 52.065 96.4302 51.8815 96.5514 51.6979C96.6726 51.4532 96.6726 51.2084 96.5514 51.086C96.4908 51.0249 96.3696 51.0249 96.2484 51.086L96.006 50.6577C96.4908 50.413 96.7332 50.5966 96.8544 50.7189C97.0967 50.9637 97.1573 51.5144 96.9149 51.8815C96.7332 52.2486 96.4302 52.4321 96.0666 52.4321Z" fill="#DB614D"/>
<path d="M123.277 84.6818C123.035 87.9858 114.976 98.6934 113.643 99.0605C113.279 99.1829 112.916 99.3664 112.613 99.6112C112.492 99.7336 112.31 99.7947 112.189 99.9171C111.401 100.529 110.856 101.263 110.856 101.263C108.492 101.08 101.888 98.0204 104.009 97.3473C104.13 97.2861 104.251 97.2249 104.433 97.1026C104.493 97.0414 104.615 96.9802 104.736 96.8578C107.22 94.7163 112.128 86.1502 112.128 85.4772C112.128 84.743 112.976 84.6206 112.976 84.6206C112.976 84.6206 108.371 77.8289 105.705 76.9723C103.039 76.1769 101.706 72.8729 101.706 72.8729C99.1006 61.6146 106.735 63.389 106.735 63.389C112.37 66.9378 123.52 81.3777 123.277 84.6818Z" fill="#5553CB"/>
<path d="M112.614 99.6108C112.492 99.7332 112.311 99.7944 112.19 99.9167C108.554 99.672 105.524 97.8976 104.434 97.1022C104.494 97.041 104.615 96.9798 104.737 96.8574C105.888 97.714 108.978 99.4884 112.614 99.6108Z" fill="#3E6575"/>
<path d="M79.0431 61.0025C78.9825 61.1249 78.9219 61.2473 78.8613 61.3696C78.316 61.3696 77.8312 61.3085 77.4071 61.1861C75.0439 60.6966 73.1655 59.3505 71.9537 58.188C71.6507 57.9432 71.4083 57.6373 71.2266 57.3925C71.4083 57.2702 71.4689 57.209 71.5295 57.209C71.7113 57.3925 71.8931 57.6373 72.1355 57.8208C73.3473 58.9834 75.2257 60.3907 77.6494 60.819C78.0736 60.9413 78.5583 61.0025 79.0431 61.0025Z" fill="#3E6575"/>
<path d="M115.158 109.402C114.067 111.299 112.007 113.563 108.432 114.175C108.371 114.052 108.311 113.991 108.25 113.869C111.946 113.318 113.946 110.871 115.036 109.035C115.036 109.158 115.097 109.28 115.158 109.402Z" fill="#3E6575"/>
<path d="M53.8968 171.198C53.8968 171.198 53.0485 172.055 52.2001 173.584C51.3518 175.114 52.2607 176.521 48.0798 180.07C48.0798 180.07 39.5362 175.053 35.6582 168.506C35.6582 168.506 35.7188 166.67 37.5972 166.242C38.6273 165.997 41.354 167.343 44.0201 167.833C44.3836 167.894 44.7472 167.955 45.1713 168.016C45.6561 168.078 46.0802 168.078 46.5044 168.016C46.9285 167.955 47.2921 167.894 47.6557 167.71C48.5646 167.343 49.2917 166.609 49.6552 165.324C49.6552 165.324 51.8972 166.609 50.3824 168.812C50.3824 168.812 53.0485 167.649 53.8968 171.198Z" fill="#98C1FF"/>
<path d="M48.0798 180.07C48.0798 180.07 39.5362 175.052 35.6582 168.505C35.6582 168.505 37.1124 168.199 38.2637 170.341C39.4756 172.544 48.7463 177.439 48.0798 180.07Z" fill="#5F78BA"/>
<path d="M48.0793 169.914C47.4128 171.015 47.4128 168.996 46.5039 168.017C46.9281 167.956 47.2916 167.894 47.6552 167.711C48.0793 168.139 48.6247 168.996 48.0793 169.914Z" fill="#5F78BA"/>
<path d="M45.4112 169.975C44.6841 170.648 44.4417 168.874 44.0176 167.895C44.3811 167.956 44.7447 168.017 45.1689 168.078C45.5324 168.568 45.9566 169.424 45.4112 169.975Z" fill="#5F78BA"/>
<path d="M106.432 193.595H94.3736C94.3736 193.595 93.8889 191.882 94.3736 190.047C94.616 189.251 95.8279 188.456 96.9792 187.416C97.2821 187.11 97.5851 186.804 97.8881 186.498C98.1304 186.253 98.3122 185.947 98.494 185.58C98.7364 185.213 98.9181 184.785 98.9787 184.295C99.1605 183.377 99.0999 182.276 98.5546 180.991C98.5546 180.991 102.675 180.134 104.129 182.398C104.129 182.398 104.25 181.358 105.583 182.031C105.583 182.031 105.402 184.111 105.644 185.886C105.947 187.66 107.583 188.15 106.432 193.595Z" fill="#98C1FF"/>
<path d="M103.283 186.255C103.162 186.377 103.041 186.438 102.859 186.438C102.738 186.438 102.616 186.377 102.495 186.316C101.889 185.826 100.496 185.031 98.4961 185.582C98.7385 185.214 98.9202 184.786 98.9808 184.297C99.7686 183.991 101.283 183.807 103.162 185.459C103.465 185.643 103.525 186.01 103.283 186.255Z" fill="#5F78BA"/>
<path d="M102.309 188.274L102.248 188.397C102.066 188.641 101.763 188.703 101.521 188.58C100.673 188.091 98.8549 187.173 97.0371 187.418C97.3401 187.112 97.643 186.806 97.946 186.5C98.8549 186.316 100.552 186.194 102.188 187.54C102.369 187.724 102.43 188.03 102.309 188.274Z" fill="#5F78BA"/>
<ellipse cx="107.5" cy="193" rx="95.5" ry="8" fill="#216D41" fill-opacity="0.12"/>
</g>
<defs>
<clipPath id="clip0_2853_63384">
<rect width="286" height="231" fill="white" transform="translate(-13)"/>
</clipPath>
</defs>
</svg>
